<?xml version="1.0" encoding="UTF-8" standalone="no"?>
<!-- Created with Inkscape (http://www.inkscape.org/) -->

<svg
   width="190"
   height="190"
   viewBox="0 0 50.270832 50.270833"
   version="1.1"
   id="svg703"
   inkscape:version="1.2.2 (b0a8486541, 2022-12-01)"
   sodipodi:docname="icon.svg"
   xml:space="preserve"
   inkscape:export-filename="../../../../../../../tmp/store_icon.png"
   inkscape:export-xdpi="185.47925"
   inkscape:export-ydpi="185.47925"
   xmlns:inkscape="http://www.inkscape.org/namespaces/inkscape"
   xmlns:sodipodi="http://sodipodi.sourceforge.net/DTD/sodipodi-0.dtd"
   xmlns:xlink="http://www.w3.org/1999/xlink"
   xmlns="http://www.w3.org/2000/svg"
   xmlns:svg="http://www.w3.org/2000/svg"><sodipodi:namedview
     id="namedview705"
     pagecolor="#9c9c9c"
     bordercolor="#eeeeee"
     borderopacity="1"
     inkscape:showpageshadow="0"
     inkscape:pageopacity="0"
     inkscape:pagecheckerboard="0"
     inkscape:deskcolor="#d1d1d1"
     inkscape:document-units="px"
     showgrid="false"
     inkscape:zoom="2.3567409"
     inkscape:cx="97.804559"
     inkscape:cy="45.401682"
     inkscape:window-width="1920"
     inkscape:window-height="1027"
     inkscape:window-x="0"
     inkscape:window-y="27"
     inkscape:window-maximized="1"
     inkscape:current-layer="layer1"><inkscape:grid
       type="xygrid"
       id="grid906"
       originx="0"
       originy="0"
       spacingx="1.3229166"
       spacingy="1.3229166" /></sodipodi:namedview><defs
     id="defs700"><linearGradient
       inkscape:collect="always"
       id="linearGradient887"><stop
         style="stop-color:#ffdf7b;stop-opacity:1;"
         offset="0"
         id="stop883" /><stop
         style="stop-color:#000000;stop-opacity:0;"
         offset="1"
         id="stop885" /></linearGradient><linearGradient
       inkscape:collect="always"
       xlink:href="#linearGradient887"
       id="linearGradient889"
       x1="35.71875"
       y1="38.364582"
       x2="25.033012"
       y2="38.364582"
       gradientUnits="userSpaceOnUse"
       gradientTransform="matrix(1.4923158,0,0,1,-35.535767,-22.489419)" /></defs><g
     inkscape:label="Layer 1"
     inkscape:groupmode="layer"
     id="layer1"><rect
       style="opacity:1;fill:#000000;stroke-width:1.32292;stroke-linejoin:round;stroke-dashoffset:7.8;fill-opacity:1"
       id="rect2571"
       width="50.270832"
       height="50.270832"
       x="0"
       y="0"
       ry="5.0727978" /><rect
       style="opacity:0.725374;fill:url(#linearGradient889);fill-opacity:1;stroke-width:1.32291;stroke-linejoin:round;stroke-dashoffset:7.8"
       id="rect821"
       width="17.767881"
       height="9.260417"
       x="6.5799619e-09"
       y="10.583495" /><g
       id="g968"
       transform="rotate(90,100.27149,0.99206304)"><path
         id="path48"
         style="fill:#314655;fill-opacity:1;stroke:none;stroke-width:0.79375;stroke-linejoin:round;stroke-dasharray:none;stroke-opacity:1"
         d="m 125.7379,94.64922 h 17.19791 V 77.45131 H 125.7379 Z"
         sodipodi:nodetypes="ccccc" /><path
         id="path49"
         style="fill:#ffffff;stroke-linejoin:round"
         d="m 125.34154,94.64974 c 3e-5,0.21898 0.17739,0.39657 0.39636,0.39687 h 2.64635 c 0.21918,-2e-5 0.39685,-0.17769 0.39687,-0.39687 V 77.45079 c -2e-5,-0.21918 -0.17769,-0.39685 -0.39687,-0.39688 h -2.64635 c -0.21897,3.1e-4 -0.39633,0.1779 -0.39636,0.39688 z M 140.2905,77.05391 c -0.21978,-8.4e-4 -0.39841,0.17709 -0.39843,0.39688 v 17.19895 c 2e-5,0.21979 0.17865,0.39771 0.39843,0.39687 h 2.6448 c 0.21979,8.4e-4 0.3984,-0.17709 0.39842,-0.39687 V 77.45079 c -2e-5,-0.21979 -0.17863,-0.39771 -0.39842,-0.39688 z"
         sodipodi:nodetypes="cccccccccccccccccc" /></g><circle
       style="fill:#ffdf7b;fill-opacity:1;stroke:none;stroke-width:2.77812;stroke-linecap:butt;stroke-linejoin:round;stroke-dasharray:none;stroke-opacity:1"
       id="circle64"
       cx="15.213692"
       cy="-17.767883"
       r="4.6301947"
       transform="rotate(90)" /><g
       id="g988"
       transform="matrix(1,0,0,-1,-37.284918,231.11238)"><rect
         style="fill:#314655;fill-opacity:1;stroke:none;stroke-width:0.79375;stroke-linejoin:round;stroke-dasharray:none;stroke-opacity:1"
         id="rect982"
         width="17.197918"
         height="17.197918"
         x="-80.940933"
         y="207.29971"
         transform="scale(-1,1)" /><path
         id="path984"
         style="fill:#5d7789;fill-opacity:1;stroke-width:5.82083;stroke-linecap:round;stroke-linejoin:round"
         d="m 78.295078,207.29972 a 14.552079,14.552083 0 0 1 -4.26221,10.28987 14.552079,14.552083 0 0 1 -10.28987,4.26221 v 2.64583 h 17.19791 v -17.19792 z" /><path
         id="path986"
         style="fill:#ffffff;stroke-linejoin:round"
         d="m 80.940938,206.90232 c 0.21898,3.1e-4 0.39633,0.1779 0.39635,0.39688 v 17.19895 c -2e-5,0.21898 -0.17737,0.39657 -0.39635,0.39687 h -2.64635 c -0.21918,-2e-5 -0.39686,-0.17769 -0.39688,-0.39687 V 207.2992 c 2e-5,-0.21918 0.1777,-0.39685 0.39688,-0.39688 z m -14.79497,0 c 0.27339,-2.7e-4 0.4652,0.26948 0.37517,0.52762 -0.21197,0.61234 -0.55761,1.16875 -1.01182,1.63091 -10e-4,0.002 -0.003,0.004 -0.004,0.006 -0.46215,0.45421 -1.02012,0.79985 -1.63246,1.01182 -0.25814,0.09 -0.52789,-0.10178 -0.52762,-0.37517 v -2.40399 c 3.1e-4,-0.21958 0.17885,-0.39719 0.39843,-0.39635 z m -2.41794,14.79497 c 0.0474,-0.002 0.0963,0.005 0.1447,0.0222 0.61234,0.21197 1.17031,0.55761 1.63246,1.01182 10e-4,0.002 0.003,0.004 0.004,0.006 0.45421,0.46216 0.79985,1.01857 1.01182,1.63091 0.09,0.25814 -0.10178,0.52789 -0.37517,0.52762 l -2.40243,-5.2e-4 c -0.21958,8.3e-4 -0.39812,-0.17678 -0.39843,-0.39636 v -2.40399 c -2.2e-4,-0.22213 0.17769,-0.39038 0.38292,-0.39739 z" /></g><g
       inkscape:label="Layer 1"
       id="layer1-3"
       transform="translate(25.135163,25.13558)"><path
         id="path39"
         style="fill:#554b3c;fill-opacity:1;stroke:none;stroke-width:0.79375;stroke-linejoin:round;stroke-dasharray:none;stroke-opacity:1"
         d="M 1.3229167,1.3229167 V 18.520827 H 18.520837 V 1.3229167 Z"
         sodipodi:nodetypes="ccccc" /><path
         id="path42"
         style="fill:#ffdf7b;fill-opacity:1;stroke-width:2.11667;stroke-linejoin:round;stroke-dasharray:none"
         d="M 1.3228967,0.92551675 A 0.39691468,0.39691468 0 0 0 0.92654675,1.3223967 V 18.521347 a 0.39691468,0.39691468 0 0 0 0.39634995,0.39687 H 18.520297 a 0.39691468,0.39691468 0 0 0 0.39843,-0.39687 V 1.3223967 a 0.39691468,0.39691468 0 0 0 -0.39843,-0.39687995 h -2.6448 a 0.39691468,0.39691468 0 0 0 -0.39635,0.39687995 v 8.59947 c 0,3.0733403 -2.48344,5.5567703 -5.5567703,5.5567703 -3.07333,0 -5.55677,-2.48343 -5.55677,-5.5567703 v -8.59947 a 0.39691468,0.39691468 0 0 0 -0.39635,-0.39687995 z" /><circle
         style="fill:#000000;fill-opacity:1;stroke:none;stroke-width:1.32292;stroke-dasharray:none;stroke-dashoffset:7.8;stroke-opacity:0.423652"
         id="circle42"
         cx="9.9226408"
         cy="9.9218769"
         r="4.8124247" /></g></g></svg>
