<?xml version="1.0" encoding="UTF-8" standalone="no"?>
<!-- Created with Inkscape (http://www.inkscape.org/) -->

<svg
   width="75"
   height="75"
   viewBox="0 0 19.84375 19.84375"
   version="1.1"
   id="svg1"
   inkscape:version="1.4 (e7c3feb100, 2024-10-09)"
   sodipodi:docname="curve.svg"
   inkscape:export-filename="curve.png"
   inkscape:export-xdpi="327.67999"
   inkscape:export-ydpi="327.67999"
   xmlns:inkscape="http://www.inkscape.org/namespaces/inkscape"
   xmlns:sodipodi="http://sodipodi.sourceforge.net/DTD/sodipodi-0.dtd"
   xmlns="http://www.w3.org/2000/svg"
   xmlns:svg="http://www.w3.org/2000/svg">
  <sodipodi:namedview
     id="namedview1"
     pagecolor="#1b1b1b"
     bordercolor="#666666"
     borderopacity="1.0"
     inkscape:showpageshadow="2"
     inkscape:pageopacity="0.0"
     inkscape:pagecheckerboard="0"
     inkscape:deskcolor="#d1d1d1"
     inkscape:document-units="px"
     showgrid="true"
     inkscape:zoom="3.4117738"
     inkscape:cx="24.327522"
     inkscape:cy="12.603415"
     inkscape:window-width="1920"
     inkscape:window-height="973"
     inkscape:window-x="0"
     inkscape:window-y="32"
     inkscape:window-maximized="1"
     inkscape:current-layer="layer1"
     inkscape:export-bgcolor="#00000000">
    <inkscape:grid
       id="grid1"
       units="px"
       originx="0"
       originy="0"
       spacingx="1.3229168"
       spacingy="1.3229167"
       empcolor="#0099e5"
       empopacity="0.30196078"
       color="#0099e5"
       opacity="0.14901961"
       empspacing="5"
       enabled="true"
       visible="true" />
  </sodipodi:namedview>
  <defs
     id="defs1" />
  <g
     inkscape:label="Layer 1"
     inkscape:groupmode="layer"
     id="layer1">
    <rect
       style="fill:#314655;fill-opacity:1;stroke:none;stroke-width:0.79375;stroke-linejoin:round;stroke-dasharray:none;stroke-opacity:1"
       id="rect7"
       width="17.197918"
       height="17.197918"
       x="-18.520834"
       y="1.322917"
       transform="scale(-1,1)" />
    <path
       id="path11"
       style="fill:#ffffff;stroke-linejoin:round"
       d="m 18.52088,0.925523 a 0.39691468,0.39691468 0 0 1 0.39636,0.396875 v 17.19895 a 0.39691468,0.39691468 0 0 1 -0.39636,0.396875 H 1.32348 A 0.39691468,0.39691468 0 0 1 0.92506,18.521348 v -2.720764 a 0.39691468,0.39691468 0 0 1 0.36535,-0.396358 c 3.64421,-0.299965 7.06385,-1.879934 9.65419,-4.46071 2.5801,-2.590201 4.1613,-6.008966 4.46123,-9.652641 a 0.39691468,0.39691468 0 0 1 0.39429,-0.365352 z m -14.79496,0 A 0.39691468,0.39691468 0 0 1 4.10109,1.453139 C 3.88912,2.06548 3.54348,2.621893 3.08927,3.084048 a 0.39691468,0.39691468 0 0 1 -0.004,0.0057 C 2.62312,3.543957 2.06515,3.889602 1.45281,4.101573 A 0.39691468,0.39691468 0 0 1 0.9252,3.726402 V 1.322414 A 0.39691468,0.39691468 0 0 1 1.32362,0.926056 Z" />
  </g>
</svg>
