<?xml version="1.0" encoding="UTF-8" standalone="no"?>
<!-- Created with Inkscape (http://www.inkscape.org/) -->

<svg
   width="575"
   height="850"
   viewBox="0 0 152.13541 224.89582"
   version="1.1"
   id="svg6376"
   xml:space="preserve"
   inkscape:version="1.2.2 (b0a8486541, 2022-12-01)"
   sodipodi:docname="explanation.svg"
   xmlns:inkscape="http://www.inkscape.org/namespaces/inkscape"
   xmlns:sodipodi="http://sodipodi.sourceforge.net/DTD/sodipodi-0.dtd"
   xmlns:xlink="http://www.w3.org/1999/xlink"
   xmlns="http://www.w3.org/2000/svg"
   xmlns:svg="http://www.w3.org/2000/svg"><sodipodi:namedview
     id="namedview6378"
     pagecolor="#5d7789"
     bordercolor="#eeeeee"
     borderopacity="1"
     inkscape:showpageshadow="0"
     inkscape:pageopacity="0"
     inkscape:pagecheckerboard="0"
     inkscape:deskcolor="#d1d1d1"
     inkscape:document-units="px"
     showgrid="false"
     inkscape:zoom="0.72748451"
     inkscape:cx="219.24866"
     inkscape:cy="382.13872"
     inkscape:window-width="1920"
     inkscape:window-height="1019"
     inkscape:window-x="0"
     inkscape:window-y="27"
     inkscape:window-maximized="1"
     inkscape:current-layer="layer1"><inkscape:grid
       type="xygrid"
       id="grid11156"
       spacingx="1.3229166"
       spacingy="1.3229166"
       empspacing="15"
       originx="6.6145826"
       originy="-2.6458334" /></sodipodi:namedview><defs
     id="defs6373"><linearGradient
       inkscape:collect="always"
       id="linearGradient21509"><stop
         style="stop-color:#ffffff;stop-opacity:1;"
         offset="0"
         id="stop21505" /><stop
         style="stop-color:#ffffff;stop-opacity:0;"
         offset="1"
         id="stop21507" /></linearGradient><linearGradient
       inkscape:collect="always"
       id="linearGradient20471"><stop
         style="stop-color:#ffdf7b;stop-opacity:1;"
         offset="0"
         id="stop20467" /><stop
         style="stop-color:#ffdf7b;stop-opacity:0;"
         offset="1"
         id="stop20469" /></linearGradient><linearGradient
       inkscape:collect="always"
       xlink:href="#linearGradient20471"
       id="linearGradient20473"
       x1="75.40625"
       y1="175.94791"
       x2="75.40625"
       y2="215.63541"
       gradientUnits="userSpaceOnUse"
       gradientTransform="matrix(0,-1.2837093,1.2837093,0,-182.80786,157.01889)" /><linearGradient
       inkscape:collect="always"
       xlink:href="#linearGradient20471"
       id="linearGradient21449"
       gradientUnits="userSpaceOnUse"
       gradientTransform="matrix(0,-0.56788102,0.56788102,0,-75.224266,193.7571)"
       x1="75.40625"
       y1="198.43655"
       x2="75.40625"
       y2="215.63541" /><linearGradient
       inkscape:collect="always"
       xlink:href="#linearGradient21509"
       id="linearGradient21511"
       x1="235.47916"
       y1="46.963539"
       x2="242.09373"
       y2="46.963539"
       gradientUnits="userSpaceOnUse"
       gradientTransform="matrix(0.87241657,0,0,0.62315433,-176.3419,121.29417)" /><linearGradient
       inkscape:collect="always"
       xlink:href="#linearGradient21509"
       id="linearGradient21527"
       gradientUnits="userSpaceOnUse"
       gradientTransform="matrix(0.87241653,0,0,0.62315431,-189.8646,146.0256)"
       x1="235.47916"
       y1="46.963539"
       x2="242.09373"
       y2="46.963539" /></defs><g
     inkscape:label="Layer 1"
     inkscape:groupmode="layer"
     id="layer1"><rect
       style="fill:#000000;fill-opacity:1;stroke:none;stroke-width:4.99999;stroke-linecap:round;stroke-linejoin:round;stroke-dasharray:none;stroke-dashoffset:7.8;stroke-opacity:1"
       id="rect18"
       width="83.213776"
       height="83.21257"
       x="-126.45056"
       y="14.188029"
       ry="3.396477"
       transform="rotate(-90)" /><g
       id="g19879"
       transform="matrix(-1.2837093,0,0,-1.2837093,102.49654,297.9716)"
       style="stroke-width:0.778993"><rect
         style="fill:#314655;fill-opacity:1;stroke:none;stroke-width:0.618324;stroke-linejoin:round;stroke-dasharray:none;stroke-opacity:1"
         id="rect30"
         width="17.197918"
         height="17.197918"
         x="-194.46777"
         y="47.625"
         transform="rotate(-90)" /><path
         id="path31-3"
         style="fill:#ffffff;stroke-width:0.778993;stroke-linejoin:round"
         d="m 47.227613,194.46784 a 0.39691468,0.39691468 0 0 0 0.396875,0.39635 h 17.198944 a 0.39691468,0.39691468 0 0 0 0.39688,-0.39635 v -17.19741 a 0.39691468,0.39691468 0 0 0 -0.39688,-0.39841 h -2.720733 a 0.39691468,0.39691468 0 0 0 -0.396372,0.36534 c -0.299958,3.64421 -1.879944,7.06384 -4.460716,9.65419 -2.590192,2.58011 -6.008952,4.16132 -9.652635,4.46125 a 0.39691468,0.39691468 0 0 0 -0.365363,0.39428 z m 0,-14.79497 a 0.39691468,0.39691468 0 0 0 0.527632,0.37518 c 0.612325,-0.21198 1.168744,-0.55761 1.630891,-1.01182 a 0.39691468,0.39691468 0 0 0 0.0061,-0.004 c 0.45421,-0.46214 0.799862,-1.02012 1.011819,-1.63248 a 0.39691468,0.39691468 0 0 0 -0.375152,-0.5276 h -2.403978 a 0.39691468,0.39691468 0 0 0 -0.396372,0.39843 z" /></g><g
       id="g19875"
       transform="matrix(0,-1.2837093,1.2837093,0,-182.80663,182.49247)"
       style="stroke-width:0.778993"><path
         id="path21"
         style="fill:#554b3c;fill-opacity:1;stroke:none;stroke-width:0.618324;stroke-linejoin:round;stroke-dasharray:none;stroke-opacity:1"
         d="M 64.822902,157.42612 H 47.62499 v 17.19792 h 17.197912 z" /><path
         id="path23"
         style="fill:#ffdf7b;fill-opacity:1;stroke-width:1.64887;stroke-linejoin:round;stroke-dasharray:none"
         d="m 65.220312,157.4261 a 0.39691468,0.39691468 0 0 0 -0.39688,-0.39635 H 47.624488 a 0.39691468,0.39691468 0 0 0 -0.396875,0.39635 v 17.19741 a 0.39691468,0.39691468 0 0 0 0.396875,0.39841 h 17.198944 a 0.39691468,0.39691468 0 0 0 0.39688,-0.39841 v -2.6448 a 0.39691468,0.39691468 0 0 0 -0.39688,-0.39635 h -8.599483 c -3.073321,0 -5.556753,-2.48345 -5.556753,-5.55677 0,-3.07335 2.483432,-5.55678 5.556753,-5.55678 h 8.599483 a 0.39691468,0.39691468 0 0 0 0.39688,-0.39635 z" /><circle
         style="fill:#000000;fill-opacity:1;stroke:none;stroke-width:1.03054;stroke-dasharray:none;stroke-dashoffset:7.8;stroke-opacity:0.423652"
         id="circle23"
         cx="166.02585"
         cy="-56.223953"
         r="4.8124247"
         transform="rotate(90)" /></g><circle
       style="fill:#ffdf7b;fill-opacity:1;stroke:none;stroke-width:2.77812;stroke-linecap:butt;stroke-linejoin:round;stroke-dasharray:none;stroke-opacity:1"
       id="circle153-20"
       cx="-84.843666"
       cy="30.321308"
       r="5.9438238"
       transform="rotate(-90)" /><path
       id="path42"
       style="fill:#000000;fill-opacity:1;stroke-width:0.77504;stroke-linecap:round;stroke-linejoin:round;stroke-dashoffset:7.8"
       d="m 103.7195,59.370554 a 0.81970445,1.1078718 0 0 0 0.40869,0.958083 l 7.32662,5.717153 a 0.81970445,1.1078718 0 0 0 1.23051,-0.958083 v -2.859322 h 1.08535 c 1.05579,0 1.90573,-0.84993 1.90573,-1.905704 V 58.41695 c 0,-1.055761 -0.84994,-1.905731 -1.90573,-1.905731 h -1.08535 v -2.86004 a 0.81970445,1.1078718 0 0 0 -1.23051,-0.95807 l -7.32662,5.716447 a 0.81970445,1.1078718 0 0 0 -0.40869,0.960998 z" /><path
       style="opacity:0.440456;fill:none;fill-opacity:1;stroke:url(#linearGradient20473);stroke-width:7.93749;stroke-linecap:butt;stroke-linejoin:miter;stroke-dasharray:none;stroke-opacity:1"
       d="m 30.321317,83.994552 v -11.88769 c 1.3e-5,-7.034341 5.702467,-12.736796 12.736809,-12.736796 h 50.947198"
       id="path20144"
       sodipodi:nodetypes="cccc" /><path
       id="rect20547"
       style="fill:#ffffff;fill-opacity:1;stroke:none;stroke-width:7.93749;stroke-linejoin:round;stroke-dasharray:none;stroke-dashoffset:7.8;stroke-opacity:1"
       d="m 131.58626,21.386559 1.03851,-1.798747 11.83009,6.830117 -1.35593,2.348546 c -1.93457,3.350777 0.17626,9.446329 -1.96341,13.152321 l -4.78767,8.292518 c -0.7306,1.265441 -2.33759,1.696024 -3.60302,0.965426 -1.26543,-0.730597 -1.69601,-2.33757 -0.96541,-3.603 l -1.35861,2.353155 c -0.73059,1.26543 -2.33757,1.696024 -3.60299,0.965427 -1.26545,-0.730598 -1.69601,-2.337571 -0.96542,-3.603013 l -1.01894,1.76487 c -0.7306,1.265428 -2.33758,1.696023 -3.60302,0.965425 -1.26542,-0.730597 -1.696,-2.33757 -0.9654,-3.603012 l -6.51017,11.275948 c -0.7306,1.26543 -2.33758,1.696011 -3.60301,0.965414 -1.26543,-0.730598 -1.69601,-2.337557 -0.96542,-3.602987 l 9.36711,-16.224314 c -2.07935,1.407857 -4.35027,2.609422 -6.94776,2.976165 -1.48559,0.209219 -2.85981,-0.825271 -3.06962,-2.310754 -0.21007,-1.485303 0.82326,-2.860091 2.30845,-3.070941 1.91326,-0.270117 5.1472,-2.837819 7.64211,-5.34552 2.3275,-2.339431 5.48538,-4.383687 8.98464,-6.002816 2.9135,-1.348075 3.60313,-2.803852 4.11489,-3.690228 z"
       sodipodi:nodetypes="sccsssscsscsscsssccccsss" /><rect
       style="fill:#000000;fill-opacity:1;stroke:none;stroke-width:4.99998;stroke-linecap:round;stroke-linejoin:round;stroke-dasharray:none;stroke-dashoffset:7.8;stroke-opacity:1"
       id="rect21403"
       width="15.663247"
       height="40.394089"
       x="-158.39133"
       y="8.4850779"
       ry="1.6481762"
       transform="rotate(-90)" /><g
       id="g21409"
       transform="matrix(0.6231543,0,0,-0.6231543,-11.16929,266.38465)"
       style="stroke-width:1.60474"><rect
         style="fill:#314655;fill-opacity:1;stroke:none;stroke-width:1.27377;stroke-linejoin:round;stroke-dasharray:none;stroke-opacity:1"
         id="rect21405"
         width="17.197918"
         height="17.197918"
         x="-194.46777"
         y="47.625"
         transform="rotate(-90)" /><path
         id="path21407"
         style="fill:#ffffff;stroke-width:1.60474;stroke-linejoin:round"
         d="m 47.227613,194.46784 a 0.39691468,0.39691468 0 0 0 0.396875,0.39635 h 17.198944 a 0.39691468,0.39691468 0 0 0 0.39688,-0.39635 v -17.19741 a 0.39691468,0.39691468 0 0 0 -0.39688,-0.39841 h -2.720733 a 0.39691468,0.39691468 0 0 0 -0.396372,0.36534 c -0.299958,3.64421 -1.879944,7.06384 -4.460716,9.65419 -2.590192,2.58011 -6.008952,4.16132 -9.652635,4.46125 a 0.39691468,0.39691468 0 0 0 -0.365363,0.39428 z m 0,-14.79497 a 0.39691468,0.39691468 0 0 0 0.527632,0.37518 c 0.612325,-0.21198 1.168744,-0.55761 1.630891,-1.01182 a 0.39691468,0.39691468 0 0 0 0.0061,-0.004 c 0.45421,-0.46214 0.799862,-1.02012 1.011819,-1.63248 a 0.39691468,0.39691468 0 0 0 -0.375152,-0.5276 h -2.403978 a 0.39691468,0.39691468 0 0 0 -0.396372,0.39843 z" /></g><circle
       style="fill:#ffdf7b;fill-opacity:1;stroke:none;stroke-width:2.77813;stroke-linecap:butt;stroke-linejoin:round;stroke-dasharray:none;stroke-opacity:1"
       id="circle21419"
       cx="-150.55968"
       cy="36.101913"
       r="2.8853259"
       transform="rotate(-90)" /><path
       id="path21421"
       style="fill:#000000;fill-opacity:1;stroke-width:0.775041;stroke-linecap:round;stroke-linejoin:round;stroke-dashoffset:7.8"
       d="m 51.946565,150.55993 a 0.39791128,0.53779711 0 0 0 0.198393,0.46508 l 3.556579,2.7753 a 0.39791128,0.53779711 0 0 0 0.59733,-0.46508 v -1.38801 h 0.526867 c 0.512512,0 0.925104,-0.41259 0.925104,-0.92509 v -0.92511 c 0,-0.5125 -0.412592,-0.9251 -0.925104,-0.9251 h -0.526867 v -1.38837 a 0.39791128,0.53779711 0 0 0 -0.59733,-0.46507 l -3.556579,2.77496 a 0.39791128,0.53779711 0 0 0 -0.198393,0.46649 z" /><path
       style="opacity:0.440456;fill:none;fill-opacity:1;stroke:url(#linearGradient21449);stroke-width:4.49792;stroke-linecap:butt;stroke-linejoin:miter;stroke-dasharray:none;stroke-opacity:1"
       d="m 37.464091,150.5597 h 9.766897"
       id="path21439"
       sodipodi:nodetypes="cc" /><rect
       style="opacity:0.435532;fill:url(#linearGradient21511);fill-opacity:1;stroke:none;stroke-width:4.23334;stroke-linecap:round;stroke-linejoin:round;stroke-dasharray:none;stroke-dashoffset:7.8;stroke-opacity:1"
       id="rect21503"
       width="5.7706718"
       height="10.716956"
       x="29.094034"
       y="145.20122"
       ry="0" /><path
       id="path27909"
       style="font-size:6.99048px;line-height:1.25;font-family:'chol game font';-inkscape-font-specification:'chol game font';stroke-width:0.264583"
       d="m 57.104434,211.34758 v 5.27607 h 1.055505 v -1.79412 h 1.582528 v -0.84391 h -1.582528 v -1.58302 h 2.110523 v -1.05502 z m 4.023109,0 v 3.69305 c 0,0.43528 0.153925,0.80674 0.461693,1.11451 0.101123,0.10111 0.210861,0.18706 0.329571,0.25741 0.11871,0.0659 0.244473,0.11887 0.376374,0.15845 0.136297,0.0352 0.274683,0.0526 0.415377,0.0526 h 0.527509 c 0.435272,0 0.806729,-0.15393 1.114497,-0.46169 0.312164,-0.31216 0.468517,-0.68605 0.468517,-1.12133 v -3.69305 h -1.055505 v 3.69305 c 0,0.14509 -0.05293,0.27037 -0.158448,0.3759 -0.02198,0.022 -0.0482,0.0438 -0.07897,0.0659 -0.02638,0.0176 -0.05696,0.0332 -0.09214,0.0463 -0.03077,0.0132 -0.06379,0.0243 -0.09897,0.0331 -0.03078,0.005 -0.0638,0.007 -0.09897,0.007 h -0.527509 c -0.145091,0 -0.270367,-0.0525 -0.375888,-0.15796 -0.04837,-0.0484 -0.08576,-0.10323 -0.112131,-0.16479 -0.02638,-0.0659 -0.03949,-0.13441 -0.03949,-0.20476 v -3.69305 z m 4.748556,0 v 5.27607 h 3.165542 v -1.05551 h -2.110524 v -4.22056 z m 3.956805,0 v 5.27607 h 3.165542 v -1.05551 H 70.88841 v -4.22056 z m 7.254469,0 v 5.27607 h 1.055505 v -1.58302 h 1.055019 0.0663 0.05899 c 0.02198,-0.005 0.04432,-0.007 0.0663,-0.007 0.02198,-0.005 0.04141,-0.009 0.05899,-0.0137 l 0.804914,1.603 h 1.055018 l -1.015528,-2.02472 c 0.0044,0 0.0088,-0.003 0.01316,-0.007 0.0044,-0.008 0.0088,-0.0131 0.01316,-0.0131 0.307767,-0.31217 0.461693,-0.68605 0.461693,-1.12133 v -0.52751 c 0,-0.0835 -0.0068,-0.16461 -0.01999,-0.24376 -0.01319,-0.0836 -0.0331,-0.16511 -0.05948,-0.24425 -0.02638,-0.0792 -0.05891,-0.15586 -0.09848,-0.23061 -0.03517,-0.0747 -0.07693,-0.14514 -0.125296,-0.2111 -0.04837,-0.0659 -0.101294,-0.12955 -0.158448,-0.19111 -0.307767,-0.30777 -0.681654,-0.4617 -1.121322,-0.4617 H 78.14286 Z m 6.298418,0 c -0.43527,0 -0.809158,0.15588 -1.121322,0.46804 -0.307767,0.30776 -0.461205,0.67922 -0.461205,1.11449 v 2.11052 c 0,0.43528 0.153438,0.80917 0.461205,1.12133 0.312164,0.30776 0.686052,0.46169 1.121322,0.46169 H 83.9133 c 0.435272,0 0.80673,-0.15393 1.114498,-0.46169 0.312163,-0.31216 0.468517,-0.68605 0.468517,-1.12133 v -2.11052 c 0,-0.43527 -0.156354,-0.80673 -0.468517,-1.11449 -0.307768,-0.31216 -0.679226,-0.46804 -1.114498,-0.46804 z m 2.869123,0 1.055018,5.27607 h 1.582527 l 0.527997,-2.37428 0.527509,2.37428 h 1.582527 l 1.055506,-5.27607 h -1.055506 l -0.804426,4.02263 -0.778101,-3.49512 h -1.055506 l -0.7781,3.49512 -0.804427,-4.02263 z m 8.67221,0 c -0.435272,0 -0.809158,0.15588 -1.121322,0.46804 -0.307768,0.30776 -0.461693,0.67922 -0.461693,1.11449 0,0.43527 0.153925,0.80916 0.461693,1.12133 0.312164,0.30776 0.68605,0.46168 1.121322,0.46168 h 0.527509 c 0.14509,0 0.268425,0.0529 0.369549,0.15845 0.10552,0.10113 0.15796,0.22397 0.15796,0.36906 0,0.14509 -0.0505,0.26843 -0.151622,0.36955 -0.03517,0.0352 -0.07256,0.0638 -0.112133,0.0858 -0.03957,0.022 -0.08132,0.0394 -0.125295,0.0526 -0.04396,0.0132 -0.09009,0.0195 -0.138459,0.0195 h -0.527509 c -0.145091,0 -0.270366,-0.0505 -0.375886,-0.15162 -0.101125,-0.10553 -0.151623,-0.2308 -0.151623,-0.37589 h -1.055506 c 0,0.43528 0.153925,0.80916 0.461693,1.12132 0.149486,0.14509 0.321378,0.2592 0.514833,0.34274 0.193453,0.0791 0.395448,0.11896 0.606489,0.11896 h 0.527509 c 0.435271,0 0.806729,-0.15393 1.114497,-0.4617 0.312164,-0.31216 0.468517,-0.68604 0.468517,-1.12132 0,-0.43528 -0.156353,-0.80673 -0.468517,-1.1145 -0.307768,-0.31216 -0.679226,-0.46803 -1.114497,-0.46803 h -0.527509 c -0.145091,0 -0.270366,-0.051 -0.375886,-0.1521 -0.03078,-0.0352 -0.05942,-0.0721 -0.08581,-0.11165 -0.02198,-0.0395 -0.03946,-0.0818 -0.05265,-0.12579 -0.0088,-0.044 -0.01316,-0.0901 -0.01316,-0.13846 0,-0.0704 0.01311,-0.13589 0.03949,-0.19745 0.02638,-0.0659 0.06377,-0.12567 0.112132,-0.17843 0.10552,-0.10112 0.230796,-0.15163 0.375887,-0.15163 h 0.527509 c 0.07034,0 0.136383,0.0131 0.197937,0.0395 0.06596,0.0264 0.12519,0.0638 0.177949,0.11214 0.101124,0.10551 0.151623,0.23079 0.151623,0.37588 h 1.055505 c 0,-0.14069 -0.01748,-0.27665 -0.05265,-0.40855 -0.03517,-0.1363 -0.0881,-0.264 -0.158447,-0.38271 -0.07035,-0.11871 -0.153865,-0.22845 -0.250592,-0.32957 -0.149487,-0.14509 -0.320893,-0.25726 -0.514346,-0.3364 -0.193453,-0.0835 -0.395936,-0.1253 -0.606976,-0.1253 z m 7.947246,0 c -0.21103,0 -0.41352,0.0418 -0.60697,0.1253 -0.19346,0.0791 -0.36486,0.19324 -0.51435,0.34274 -0.14509,0.14508 -0.25968,0.31455 -0.34322,0.50801 -0.0791,0.19345 -0.11847,0.39545 -0.11847,0.60648 v 2.11052 c 0,0.43528 0.15392,0.80917 0.46169,1.12133 0.0616,0.0572 0.12518,0.1101 0.19111,0.15845 0.066,0.0484 0.13636,0.0921 0.2111,0.13163 0.0747,0.0352 0.15196,0.0662 0.2311,0.0927 0.0791,0.0263 0.15828,0.0458 0.23742,0.059 0.0836,0.0132 0.16705,0.02 0.25059,0.02 h 0.52751 c 0.43527,0 0.80673,-0.15393 1.1145,-0.46169 0.31216,-0.31216 0.46803,-0.68605 0.46803,-1.12133 h -1.05502 c 0,0.14509 -0.0505,0.27037 -0.15162,0.37589 -0.0263,0.022 -0.055,0.0443 -0.0859,0.0663 -0.0263,0.0176 -0.055,0.0326 -0.0858,0.0459 -0.0308,0.0132 -0.0638,0.0243 -0.099,0.0331 -0.0352,0.005 -0.0701,0.007 -0.10531,0.007 h -0.528 c -0.0704,0 -0.13832,-0.0136 -0.20427,-0.04 -0.0616,-0.0263 -0.11887,-0.0638 -0.17161,-0.11213 -0.0484,-0.0527 -0.0858,-0.10958 -0.11214,-0.17113 -0.0263,-0.066 -0.0395,-0.13441 -0.0395,-0.20476 v -2.11052 c 0,-0.14509 0.0505,-0.27037 0.15163,-0.37589 0.0527,-0.0484 0.11007,-0.0857 0.17161,-0.11213 0.066,-0.0263 0.13441,-0.0395 0.20476,-0.0395 h 0.52751 c 0.14509,0 0.26794,0.0529 0.36906,0.15845 0.10553,0.10112 0.15845,0.22397 0.15845,0.36906 h 1.05502 c 0,-0.21104 -0.0418,-0.41304 -0.1253,-0.60649 -0.0791,-0.19346 -0.1913,-0.36486 -0.33639,-0.51434 -0.31218,-0.30777 -0.68557,-0.4617 -1.12084,-0.4617 z m 4.64911,0 c -0.0704,0 -0.14076,0.005 -0.2111,0.0132 -0.066,0.008 -0.13151,0.022 -0.19745,0.0395 -0.066,0.0176 -0.132,0.0394 -0.19794,0.0659 -0.0616,0.0264 -0.12324,0.0575 -0.18477,0.0926 -0.0572,0.0352 -0.11448,0.0745 -0.17162,0.11847 -0.0572,0.0395 -0.10961,0.0838 -0.15796,0.13212 -0.14509,0.14949 -0.25968,0.32089 -0.34322,0.51435 -0.0791,0.19345 -0.11847,0.39545 -0.11847,0.60648 v 3.69355 h 1.05502 v -1.16082 h 1.58301 v 1.16082 h 1.05502 v -3.69355 c 0,-0.43527 -0.15587,-0.80672 -0.46803,-1.11449 -0.30777,-0.31216 -0.67923,-0.46804 -1.1145,-0.46804 z m 3.16554,0 v 5.27607 h 1.0555 v -3.95729 l 1.58253,3.95729 h 1.58301 v -5.27607 h -1.05502 v 3.95681 l -1.58301,-3.95681 z m 5.07861,0 v 1.05502 h 1.31878 v 4.22105 h 1.05501 v -4.22105 h 1.31926 v -1.05502 z m 7.84779,0 v 5.27607 h 1.05551 v -3.71986 l 1.18032,3.46927 h 1.33194 l 1.18079,-3.46927 v 3.71986 h 1.05502 v -5.27607 h -1.58253 l -1.31925,3.88417 -1.31878,-3.88417 z m 8.34265,0 c -0.43528,0 -0.80868,0.15588 -1.12084,0.46804 -0.30777,0.30776 -0.46169,0.67922 -0.46169,1.11449 v 2.11052 c 0,0.43528 0.15392,0.80917 0.46169,1.12133 0.31216,0.30776 0.68556,0.46169 1.12084,0.46169 h 0.52799 c 0.43527,0 0.80673,-0.15393 1.11449,-0.46169 0.31217,-0.31216 0.46804,-0.68605 0.46804,-1.12133 v -2.11052 c 0,-0.43527 -0.15587,-0.80673 -0.46804,-1.11449 -0.30776,-0.31216 -0.67922,-0.46804 -1.11449,-0.46804 z m 2.86911,0 1.05502,5.27607 h 1.58302 l 1.05502,-5.27607 h -1.05502 l -0.79175,3.95681 -0.79127,-3.95681 z m 4.55063,0 v 5.27607 h 3.69305 v -1.05551 h -2.63803 v -1.05502 h 1.58301 v -0.8444 h -1.58301 v -1.26612 h 2.11052 v -1.05502 z m -61.234932,1.05502 h 1.061844 c 0.14509,0 0.267938,0.0529 0.369061,0.15845 0.101124,0.10113 0.151623,0.22397 0.151623,0.36906 v 0.52751 c 0,0.0484 -0.0063,0.095 -0.0195,0.13895 -0.0088,0.044 -0.02627,0.0858 -0.05265,0.1253 -0.02198,0.0395 -0.04869,0.077 -0.07946,0.11212 -0.05277,0.0484 -0.112002,0.0858 -0.177949,0.11214 -0.06156,0.0263 -0.125164,0.0395 -0.191112,0.0395 h -1.061844 z m 5.242913,0 H 83.9133 c 0.145092,0 0.268425,0.0529 0.36955,0.15845 0.10552,0.10113 0.157959,0.22397 0.157959,0.36906 v 2.11052 c 0,0.14509 -0.0505,0.27037 -0.151621,0.37589 -0.03517,0.0308 -0.07256,0.0575 -0.112133,0.0794 -0.03957,0.022 -0.08132,0.0394 -0.125296,0.0526 -0.04396,0.0132 -0.09009,0.0195 -0.138459,0.0195 h -0.527509 c -0.14509,0 -0.270366,-0.0505 -0.375886,-0.15161 -0.101124,-0.10553 -0.151623,-0.23081 -0.151623,-0.3759 v -2.11052 c 0,-0.14509 0.0505,-0.26793 0.151623,-0.36906 0.10552,-0.10552 0.230796,-0.15845 0.375886,-0.15845 z m 24.137689,0 h 0.52799 c 0.14509,0 0.27037,0.0505 0.37589,0.15163 0.0484,0.0527 0.0858,0.1125 0.11213,0.17843 0.0263,0.0616 0.0395,0.12712 0.0395,0.19745 v 1.68833 h -1.58301 v -1.68833 c 0,-0.14509 0.0505,-0.27037 0.15162,-0.37588 0.0527,-0.0484 0.11007,-0.0858 0.17161,-0.11214 0.0659,-0.0263 0.13393,-0.0395 0.20428,-0.0395 z m 24.43459,0 h 0.52799 c 0.14509,0 0.26794,0.0529 0.36906,0.15845 0.10552,0.10113 0.15845,0.22397 0.15845,0.36906 v 2.11052 c 0,0.14509 -0.0505,0.27037 -0.15162,0.37589 -0.0352,0.0308 -0.0726,0.0575 -0.11213,0.0794 -0.0395,0.022 -0.0813,0.0394 -0.1253,0.0526 -0.044,0.0132 -0.0901,0.0195 -0.13846,0.0195 h -0.52799 c -0.1451,0 -0.27037,-0.0505 -0.37589,-0.15161 -0.10113,-0.10553 -0.15162,-0.23081 -0.15162,-0.3759 v -2.11052 c 0,-0.14509 0.0505,-0.26793 0.15162,-0.36906 0.10552,-0.10552 0.23079,-0.15845 0.37589,-0.15845 z" /><path
       id="path27857"
       style="font-size:6.99048px;line-height:1.25;font-family:'chol game font';-inkscape-font-specification:'chol game font';stroke-width:0.264583"
       d="m 61.57461,172.32314 v 5.27606 h 2.110524 c 0.43527,0 0.806728,-0.15392 1.114496,-0.4617 0.312165,-0.31216 0.468518,-0.68556 0.468518,-1.12083 v -0.2111 c 0,-0.21104 -0.04225,-0.41353 -0.125783,-0.60698 -0.07914,-0.19345 -0.19082,-0.36485 -0.335909,-0.51435 -0.06156,-0.0572 -0.125652,-0.10961 -0.1916,-0.15796 0.08354,-0.19784 0.125296,-0.40469 0.125296,-0.62013 0,-0.43527 -0.155866,-0.80673 -0.468031,-1.1145 -0.307768,-0.31217 -0.679225,-0.46851 -1.114496,-0.46851 z m 4.616435,0 v 5.27606 h 3.165542 v -1.05502 h -2.110036 v -4.22104 z m 5.440851,0 c -0.435272,0 -0.808671,0.15634 -1.120835,0.46851 -0.307768,0.30777 -0.461692,0.67923 -0.461692,1.1145 v 2.11052 c 0,0.43527 0.153924,0.80867 0.461692,1.12083 0.312164,0.30778 0.685563,0.4617 1.120835,0.4617 h 0.527997 c 0.435271,0 0.806729,-0.15392 1.114497,-0.4617 0.312163,-0.31216 0.468029,-0.68556 0.468029,-1.12083 v -2.11052 c 0,-0.43527 -0.155866,-0.80673 -0.468029,-1.1145 -0.307768,-0.31217 -0.679226,-0.46851 -1.114497,-0.46851 z m 7.71616,0 v 5.27606 h 1.055506 v -2.63803 h 1.055018 c 0.04837,0 0.09449,0.007 0.138459,0.02 0.04397,0.008 0.08573,0.0263 0.125296,0.0526 0.03957,0.022 0.07695,0.0487 0.112131,0.0794 0.04836,0.0527 0.08575,0.112 0.112133,0.17795 0.02638,0.0616 0.03949,0.12761 0.03949,0.19793 v 2.11004 h 1.055506 v -2.11004 c 0,-0.43527 -0.153925,-0.80916 -0.461693,-1.12132 -0.03957,-0.0395 -0.08376,-0.077 -0.132121,-0.11213 -0.04397,-0.0352 -0.0901,-0.0682 -0.138459,-0.099 -0.04397,-0.0308 -0.0901,-0.057 -0.138459,-0.079 l 0.870732,-1.75462 h -1.055506 l -0.791263,1.58301 h -0.791264 v -1.58301 z m 6.166785,0 c -0.43527,0 -0.809157,0.15634 -1.121322,0.46851 -0.307767,0.30777 -0.461692,0.67923 -0.461692,1.1145 0,0.43527 0.153925,0.80916 0.461692,1.12132 0.312165,0.30777 0.686052,0.46169 1.121322,0.46169 h 0.52751 c 0.14509,0 0.267937,0.0524 0.369061,0.15796 0.10552,0.10112 0.158448,0.22446 0.158448,0.36955 0,0.14509 -0.0505,0.26794 -0.151623,0.36906 -0.03517,0.0352 -0.07256,0.0638 -0.112131,0.0858 -0.03958,0.022 -0.08133,0.0395 -0.125297,0.0526 -0.04397,0.0132 -0.0901,0.02 -0.138458,0.02 h -0.52751 c -0.14509,0 -0.270365,-0.0505 -0.375886,-0.15161 -0.101124,-0.10553 -0.15211,-0.2308 -0.15211,-0.3759 h -1.055018 c 0,0.43528 0.153925,0.80917 0.461692,1.12133 0.149488,0.14509 0.320892,0.2592 0.514346,0.34273 0.193454,0.0791 0.395937,0.11847 0.606976,0.11847 h 0.52751 c 0.43527,0 0.806729,-0.15343 1.114496,-0.4612 0.312166,-0.31216 0.468031,-0.68605 0.468031,-1.12133 0,-0.43526 -0.155865,-0.80672 -0.468031,-1.11449 -0.307767,-0.31217 -0.679226,-0.46852 -1.114496,-0.46852 h -0.52751 c -0.14509,0 -0.270365,-0.0505 -0.375886,-0.15162 -0.03078,-0.0352 -0.05942,-0.0726 -0.08581,-0.11213 -0.02198,-0.0395 -0.03995,-0.0813 -0.05314,-0.1253 -0.0088,-0.044 -0.01316,-0.0901 -0.01316,-0.13846 0,-0.0704 0.01359,-0.13638 0.03997,-0.19794 0.02638,-0.0659 0.06377,-0.12519 0.112132,-0.17795 0.105521,-0.10111 0.230796,-0.15162 0.375887,-0.15162 h 0.527509 c 0.07035,0 0.136384,0.0131 0.197937,0.0395 0.06596,0.0263 0.125189,0.0638 0.177949,0.11213 0.101124,0.10552 0.151623,0.2308 0.151623,0.37589 h 1.055018 c 0,-0.14069 -0.01748,-0.27714 -0.05265,-0.40904 -0.03517,-0.1363 -0.0881,-0.26351 -0.158447,-0.38222 -0.07035,-0.11872 -0.153864,-0.22894 -0.250592,-0.33006 -0.149486,-0.14509 -0.320891,-0.25726 -0.514345,-0.3364 -0.193454,-0.0835 -0.395448,-0.12529 -0.606489,-0.12529 z m 6.364236,0 v 5.27606 h 3.165542 v -1.05502 h -2.110524 v -4.22104 z m 5.440851,0 c -0.435271,0 -0.809158,0.15634 -1.121322,0.46851 -0.307768,0.30777 -0.461693,0.67923 -0.461693,1.1145 v 2.11052 c 0,0.43527 0.153925,0.80867 0.461693,1.12083 0.312164,0.30778 0.686051,0.4617 1.121322,0.4617 h 0.527509 c 0.435271,0 0.806729,-0.15392 1.114497,-0.4617 0.312165,-0.31216 0.46803,-0.68556 0.46803,-1.12083 v -2.11052 c 0,-0.43527 -0.155865,-0.80673 -0.46803,-1.1145 -0.307768,-0.31217 -0.679226,-0.46851 -1.114497,-0.46851 z m 4.550612,0 c -0.43527,0 -0.80915,0.15634 -1.12132,0.46851 -0.30776,0.30777 -0.46169,0.67923 -0.46169,1.1145 v 2.11052 c 0,0.43527 0.15393,0.80867 0.46169,1.12083 0.31217,0.30778 0.68605,0.4617 1.12132,0.4617 h 0.52751 c 0.43528,0 0.80674,-0.15392 1.11451,-0.4617 0.31216,-0.31216 0.46802,-0.68556 0.46802,-1.12083 v -2.11052 c 0,-0.43527 -0.15586,-0.80673 -0.46802,-1.1145 -0.30777,-0.31217 -0.67923,-0.46851 -1.11451,-0.46851 z m 3.06658,0 v 5.27606 h 1.05502 v -1.58253 h 1.0555 c 0.43528,0 0.80674,-0.15392 1.11451,-0.46169 0.31216,-0.31216 0.46802,-0.68605 0.46802,-1.12132 v -0.52751 c 0,-0.43527 -0.15393,-0.80916 -0.46169,-1.12133 -0.14949,-0.14509 -0.32089,-0.25725 -0.51434,-0.3364 -0.19346,-0.0835 -0.39545,-0.12528 -0.6065,-0.12528 h -1.0555 z m 9.43081,0 c -0.0704,0 -0.14075,0.005 -0.2111,0.0137 -0.066,0.008 -0.13199,0.0219 -0.19794,0.0395 -0.066,0.0177 -0.13199,0.0394 -0.19793,0.0659 -0.0616,0.0263 -0.12276,0.0574 -0.18429,0.0926 -0.0572,0.0352 -0.11447,0.0744 -0.17161,0.11847 -0.0572,0.0395 -0.1101,0.0838 -0.15845,0.13213 -0.14509,0.14948 -0.2592,0.32088 -0.34273,0.51434 -0.0792,0.19346 -0.11896,0.39545 -0.11896,0.60649 v 3.69354 h 1.0555 v -1.16082 h 1.58253 v 1.16082 h 1.0555 v -3.69354 c 0,-0.43527 -0.15635,-0.80673 -0.46852,-1.11449 -0.30776,-0.31218 -0.67922,-0.46804 -1.11449,-0.46804 z m 3.16554,0 v 5.27606 h 1.05502 v -1.58253 h 1.0555 0.0658 0.0594 c 0.022,-0.005 0.0439,-0.007 0.0659,-0.007 0.022,-0.005 0.0419,-0.008 0.0595,-0.0132 l 0.80443,1.60252 h 1.05551 l -1.01602,-2.02472 c 0.005,0 0.008,-0.002 0.0132,-0.007 0.005,-0.008 0.008,-0.0132 0.0131,-0.0132 0.30777,-0.31216 0.4617,-0.68605 0.4617,-1.12133 v -0.52751 c 0,-0.0835 -0.007,-0.16511 -0.0195,-0.24425 -0.0132,-0.0835 -0.0331,-0.16463 -0.0595,-0.24376 -0.0263,-0.0792 -0.0593,-0.15635 -0.099,-0.2311 -0.0352,-0.0747 -0.0769,-0.14465 -0.12529,-0.21061 -0.0484,-0.0659 -0.1013,-0.13004 -0.15845,-0.1916 -0.30777,-0.30777 -0.68117,-0.46169 -1.12084,-0.46169 h -1.0555 z m 6.29842,0 c -0.43527,0 -0.80915,0.15634 -1.12132,0.46851 -0.30777,0.30777 -0.4617,0.67923 -0.4617,1.1145 v 2.11052 c 0,0.43527 0.15393,0.80867 0.4617,1.12083 0.31217,0.30778 0.68605,0.4617 1.12132,0.4617 h 0.52751 c 0.43527,0 0.80673,-0.15392 1.1145,-0.4617 0.31216,-0.31216 0.46802,-0.68556 0.46802,-1.12083 v -2.11052 c 0,-0.43527 -0.15586,-0.80673 -0.46802,-1.1145 -0.30777,-0.31217 -0.67923,-0.46851 -1.1145,-0.46851 z m 5.70461,0 v 3.69353 c 0,0.14509 -0.0529,0.27037 -0.15845,0.37589 -0.022,0.022 -0.0482,0.0439 -0.079,0.0658 -0.0263,0.0176 -0.0575,0.0332 -0.0926,0.0463 -0.0308,0.0132 -0.0633,0.0239 -0.0985,0.0326 -0.0308,0.005 -0.0638,0.007 -0.099,0.007 h -0.528 c -0.14509,0 -0.27037,-0.0529 -0.37588,-0.15845 -0.0484,-0.0484 -0.0858,-0.10323 -0.11214,-0.16478 -0.0263,-0.066 -0.0395,-0.13393 -0.0395,-0.20428 v -3.69305 h -1.05501 v 3.69305 c 0,0.43527 0.15391,0.80673 0.46169,1.11449 0.10112,0.10114 0.21086,0.18709 0.32957,0.25743 0.11871,0.0659 0.24399,0.11839 0.37589,0.15796 0.13629,0.0352 0.27517,0.0526 0.41586,0.0526 h 0.52751 c 0.43527,0 0.80673,-0.15392 1.1145,-0.4617 0.31217,-0.31216 0.46802,-0.68556 0.46802,-1.12083 v -3.69353 z m 2.11052,0 v 5.27606 h 1.05502 v -3.95681 l 1.58301,3.95681 h 1.58253 v -5.27606 h -1.05502 v 3.95728 l -1.58301,-3.95728 z m 5.27606,0 v 5.27606 h 2.11004 c 0.43527,0 0.80673,-0.15392 1.1145,-0.4617 0.31216,-0.31216 0.46851,-0.68556 0.46851,-1.12083 v -2.11052 c 0,-0.43527 -0.15635,-0.80673 -0.46851,-1.1145 -0.30777,-0.31217 -0.67923,-0.46851 -1.1145,-0.46851 z m -60.641597,4.8e-4 c -0.211039,0 -0.413035,0.0418 -0.606489,0.12529 -0.193454,0.0792 -0.364859,0.19325 -0.514345,0.34274 -0.145091,0.14508 -0.259685,0.31455 -0.343222,0.508 -0.07914,0.19346 -0.118471,0.39546 -0.118471,0.6065 v 2.11052 c 0,0.43527 0.153925,0.80916 0.461693,1.12132 0.06156,0.0572 0.125164,0.10961 0.191112,0.15796 0.06596,0.0484 0.136357,0.0925 0.211101,0.13212 0.07475,0.0352 0.151463,0.0658 0.230603,0.0922 0.07914,0.0263 0.158287,0.0462 0.237427,0.0595 0.08354,0.0132 0.167054,0.02 0.250591,0.02 h 0.527509 c 0.435271,0 0.807217,-0.15392 1.114985,-0.46169 0.312164,-0.31217 0.46803,-0.68606 0.46803,-1.12133 h -1.055018 c 0,0.14509 -0.0505,0.27037 -0.151622,0.37589 -0.02638,0.022 -0.05502,0.0439 -0.0858,0.0659 -0.02638,0.0176 -0.05502,0.0332 -0.0858,0.0463 -0.03078,0.0132 -0.0638,0.0243 -0.09897,0.0331 -0.03517,0.005 -0.07062,0.007 -0.105795,0.007 h -0.527509 c -0.07035,0 -0.138325,-0.0131 -0.204275,-0.0395 -0.06156,-0.0263 -0.118853,-0.0638 -0.171611,-0.11213 -0.04836,-0.0527 -0.08575,-0.11007 -0.112133,-0.17161 -0.02638,-0.066 -0.03949,-0.13393 -0.03949,-0.20428 v -2.11052 c 0,-0.14509 0.0505,-0.27037 0.151623,-0.37589 0.05277,-0.0484 0.11006,-0.0858 0.171611,-0.11213 0.06595,-0.0263 0.133929,-0.0395 0.204275,-0.0395 h 0.52751 c 0.14509,0 0.268425,0.0529 0.369548,0.15845 0.10552,0.10112 0.158448,0.22397 0.158448,0.36906 h 1.055018 c 0,-0.21104 -0.04176,-0.41303 -0.125296,-0.60649 -0.07914,-0.19346 -0.191306,-0.36535 -0.336396,-0.51483 -0.312165,-0.30777 -0.686052,-0.46121 -1.121322,-0.46121 z m -13.651368,1.05502 h 0.52751 c 0.14509,0 0.267938,0.0529 0.36906,0.15845 0.105521,0.10111 0.158449,0.22397 0.158449,0.36906 0,0.14509 -0.05293,0.27036 -0.158449,0.37588 -0.101122,0.10112 -0.22397,0.15163 -0.36906,0.15163 h -0.52751 z m 9.001781,0 h 0.527997 c 0.14509,0 0.267937,0.0529 0.369061,0.15845 0.10552,0.10111 0.158447,0.22397 0.158447,0.36906 v 2.11052 c 0,0.14509 -0.0505,0.27037 -0.151622,0.37589 -0.03517,0.0307 -0.07256,0.057 -0.112132,0.079 -0.03957,0.022 -0.08132,0.0395 -0.125295,0.0526 -0.04396,0.0132 -0.09009,0.02 -0.138459,0.02 h -0.527997 c -0.145091,0 -0.270366,-0.0505 -0.375887,-0.15162 -0.101124,-0.10552 -0.151622,-0.2308 -0.151622,-0.37589 v -2.11052 c 0,-0.14509 0.0505,-0.26795 0.151622,-0.36906 0.105521,-0.10553 0.230796,-0.15845 0.375887,-0.15845 z m 25.688032,0 h 0.527509 c 0.145091,0 0.267938,0.0529 0.369062,0.15845 0.10552,0.10111 0.158447,0.22397 0.158447,0.36906 v 2.11052 c 0,0.14509 -0.0505,0.27037 -0.151622,0.37589 -0.03517,0.0307 -0.07256,0.057 -0.112133,0.079 -0.03958,0.022 -0.08133,0.0395 -0.125295,0.0526 -0.04397,0.0132 -0.0901,0.02 -0.138459,0.02 h -0.527509 c -0.14509,0 -0.270365,-0.0505 -0.375886,-0.15162 -0.101124,-0.10552 -0.152111,-0.2308 -0.152111,-0.37589 v -2.11052 c 0,-0.14509 0.05098,-0.26795 0.152111,-0.36906 0.105521,-0.10553 0.230796,-0.15845 0.375886,-0.15845 z m 4.550612,0 h 0.52751 c 0.1451,0 0.26795,0.0529 0.36907,0.15845 0.10552,0.10111 0.15844,0.22397 0.15844,0.36906 v 2.11052 c 0,0.14509 -0.0505,0.27037 -0.15161,0.37589 -0.0352,0.0307 -0.0725,0.057 -0.11214,0.079 -0.0395,0.022 -0.0813,0.0395 -0.1253,0.0526 -0.044,0.0132 -0.0901,0.02 -0.13846,0.02 h -0.52751 c -0.14509,0 -0.27085,-0.0505 -0.37637,-0.15162 -0.10112,-0.10552 -0.15162,-0.2308 -0.15162,-0.37589 v -2.11052 c 0,-0.14509 0.0505,-0.26795 0.15162,-0.36906 0.10552,-0.10553 0.23128,-0.15845 0.37637,-0.15845 z m 4.1216,0 h 1.0555 c 0.0484,0 0.0945,0.007 0.13846,0.02 0.044,0.008 0.0858,0.0263 0.1253,0.0526 0.0395,0.022 0.077,0.0482 0.11213,0.079 0.008,0.0132 0.0175,0.0263 0.0263,0.0395 0.0132,0.008 0.0243,0.0199 0.0331,0.0331 0.008,0.0132 0.0151,0.0263 0.0195,0.0395 0.008,0.0132 0.0156,0.0263 0.02,0.0395 0.008,0.0132 0.0151,0.0288 0.0195,0.0463 0.005,0.0132 0.009,0.0283 0.0137,0.0458 0.005,0.0132 0.007,0.0263 0.007,0.0394 0.005,0.0132 0.007,0.0288 0.007,0.0463 0.005,0.0132 0.007,0.0288 0.007,0.0463 v 0.52751 c 0,0.14509 -0.0529,0.27037 -0.15845,0.37588 -0.10112,0.10113 -0.22396,0.15163 -0.36906,0.15163 h -1.05501 z m 8.37579,0 h 0.52751 c 0.14509,0 0.27037,0.0505 0.37588,0.15162 0.0484,0.0527 0.0858,0.11201 0.11214,0.17795 0.0263,0.0616 0.0395,0.12761 0.0395,0.19794 v 1.68831 h -1.58253 v -1.68831 c 0,-0.14509 0.0505,-0.27037 0.15162,-0.37589 0.0527,-0.0484 0.11007,-0.0858 0.17161,-0.11213 0.0659,-0.0263 0.13394,-0.0395 0.20428,-0.0395 z m 4.22056,0 h 1.06184 c 0.14509,0 0.26843,0.0524 0.36955,0.15796 0.10112,0.10112 0.15162,0.22446 0.15162,0.36955 v 0.52751 c 0,0.0484 -0.007,0.0945 -0.02,0.13845 -0.008,0.044 -0.0263,0.0858 -0.0526,0.1253 -0.022,0.0395 -0.0482,0.077 -0.079,0.11213 -0.0527,0.0484 -0.11201,0.0858 -0.17795,0.11213 -0.0616,0.0263 -0.12567,0.0395 -0.1916,0.0395 h -1.06184 z m 5.2434,0 h 0.52751 c 0.14509,0 0.26794,0.0529 0.36906,0.15845 0.10552,0.10111 0.15845,0.22397 0.15845,0.36906 v 2.11052 c 0,0.14509 -0.0505,0.27037 -0.15163,0.37589 -0.0352,0.0307 -0.0726,0.057 -0.11212,0.079 -0.0395,0.022 -0.0813,0.0395 -0.1253,0.0526 -0.044,0.0132 -0.0901,0.02 -0.13846,0.02 h -0.52751 c -0.14509,0 -0.27037,-0.0505 -0.37589,-0.15162 -0.10112,-0.10552 -0.15162,-0.2308 -0.15162,-0.37589 v -2.11052 c 0,-0.14509 0.0505,-0.26795 0.15162,-0.36906 0.10552,-0.10553 0.2308,-0.15845 0.37589,-0.15845 z m 14.14621,0 h 1.05502 c 0.14509,0 0.26843,0.0529 0.36955,0.15845 0.10552,0.10111 0.15844,0.22397 0.15844,0.36906 v 2.11052 c 0,0.14509 -0.0509,0.27037 -0.15211,0.37589 -0.0352,0.0307 -0.0726,0.057 -0.11212,0.079 -0.0395,0.022 -0.0813,0.0395 -0.1253,0.0526 -0.044,0.0132 -0.0901,0.02 -0.13846,0.02 h -1.05502 z m -75.347985,1.89942 h 1.055019 c 0.145089,0 0.270365,0.0505 0.375886,0.15162 0.03077,0.0352 0.05699,0.0726 0.07898,0.11213 0.02638,0.0395 0.04435,0.0813 0.05314,0.1253 0.01319,0.044 0.0195,0.0901 0.0195,0.13846 v 0.2111 c 0,0.0704 -0.01311,0.13832 -0.03949,0.20428 -0.02638,0.0616 -0.06377,0.11887 -0.112132,0.17161 -0.105521,0.10112 -0.230797,0.15162 -0.375887,0.15162 h -1.055018 z" /><path
       id="path27813"
       style="font-size:6.99048px;line-height:1.25;font-family:'chol game font';-inkscape-font-specification:'chol game font';stroke-width:0.264583"
       d="m 85.300816,147.59164 c -0.211042,0 -0.413035,0.0423 -0.60649,0.12578 -0.193454,0.0791 -0.364857,0.19325 -0.514346,0.34274 -0.145089,0.14509 -0.259684,0.31455 -0.343222,0.508 -0.07914,0.19346 -0.118469,0.39545 -0.118469,0.60649 v 2.11052 c 0,0.43527 0.153924,0.80867 0.461691,1.12084 0.06156,0.0572 0.125164,0.11009 0.191113,0.15844 0.06596,0.0484 0.136357,0.0926 0.211101,0.13212 0.07474,0.0352 0.151462,0.0658 0.230603,0.0922 0.07914,0.0263 0.158287,0.0463 0.237427,0.0595 0.08354,0.0132 0.167055,0.02 0.250592,0.02 h 0.527996 c 0.435272,0 0.806729,-0.15393 1.114497,-0.4617 0.312165,-0.31217 0.46803,-0.68605 0.46803,-1.12132 h -1.055018 c 0,0.14509 -0.0505,0.27037 -0.151622,0.37589 -0.02638,0.022 -0.05502,0.0439 -0.0858,0.0659 -0.02638,0.0176 -0.05502,0.0332 -0.08581,0.0463 -0.03077,0.0132 -0.06379,0.0243 -0.09897,0.0331 -0.03517,0.005 -0.07013,0.007 -0.105307,0.007 h -0.527995 c -0.07035,0 -0.138326,-0.0131 -0.204277,-0.0395 -0.06156,-0.0263 -0.118852,-0.0638 -0.171611,-0.11213 -0.04837,-0.0527 -0.08576,-0.11007 -0.112131,-0.17161 -0.02638,-0.0659 -0.03949,-0.13394 -0.03949,-0.20428 v -2.11052 c 0,-0.14509 0.0505,-0.27037 0.151621,-0.37589 0.05276,-0.0484 0.110054,-0.0858 0.171611,-0.11213 0.06596,-0.0264 0.133929,-0.0395 0.204277,-0.0395 h 0.527997 c 0.145091,0 0.267938,0.0529 0.369061,0.15845 0.105521,0.10113 0.158448,0.22397 0.158448,0.36906 h 1.055018 c 0,-0.21103 -0.04176,-0.41303 -0.125295,-0.60649 -0.07914,-0.19345 -0.191307,-0.36534 -0.336398,-0.51483 -0.312164,-0.30777 -0.685562,-0.46169 -1.120834,-0.46169 z m 52.991264,0 c -0.21105,0 -0.41304,0.0423 -0.6065,0.12578 -0.19345,0.0791 -0.36534,0.19325 -0.51483,0.34274 -0.14509,0.14509 -0.2592,0.31455 -0.34274,0.508 -0.0791,0.19346 -0.11895,0.39545 -0.11895,0.60649 v 2.11052 c 0,0.43527 0.15392,0.80867 0.46169,1.12084 0.0616,0.0572 0.12568,0.11009 0.1916,0.15844 0.0659,0.0484 0.13637,0.0926 0.21111,0.13212 0.0747,0.0352 0.15145,0.0658 0.2306,0.0922 0.0791,0.0263 0.15828,0.0463 0.23742,0.0595 0.0835,0.0132 0.16706,0.02 0.2506,0.02 h 0.52751 c 0.43526,0 0.80671,-0.15393 1.11449,-0.4617 0.31216,-0.31217 0.46852,-0.68605 0.46852,-1.12132 h -1.0555 c 0,0.14509 -0.0505,0.27037 -0.15163,0.37589 -0.0263,0.022 -0.055,0.0439 -0.0859,0.0659 -0.0264,0.0176 -0.0545,0.0332 -0.0853,0.0463 -0.0308,0.0132 -0.0638,0.0243 -0.099,0.0331 -0.0352,0.005 -0.0706,0.007 -0.10578,0.007 h -0.52751 c -0.0704,0 -0.13833,-0.0131 -0.20428,-0.0395 -0.0616,-0.0263 -0.11888,-0.0638 -0.17161,-0.11213 -0.0484,-0.0527 -0.0858,-0.11007 -0.11213,-0.17161 -0.0263,-0.0659 -0.0395,-0.13394 -0.0395,-0.20428 v -2.11052 c 0,-0.14509 0.0505,-0.27037 0.15162,-0.37589 0.0527,-0.0484 0.11007,-0.0858 0.17161,-0.11213 0.0659,-0.0264 0.13393,-0.0395 0.20428,-0.0395 h 0.52751 c 0.14508,0 0.26842,0.0529 0.36954,0.15845 0.10552,0.10113 0.15797,0.22397 0.15797,0.36906 h 1.0555 c 0,-0.21103 -0.0418,-0.41303 -0.1253,-0.60649 -0.0791,-0.19345 -0.19131,-0.36534 -0.3364,-0.51483 -0.31216,-0.30777 -0.68605,-0.46169 -1.12131,-0.46169 z m -72.314574,4.8e-4 v 2.11004 c 0,0.43527 0.153924,0.80673 0.461692,1.11449 0.149488,0.14949 0.320892,0.26602 0.514347,0.34956 0.193453,0.0792 0.395935,0.11896 0.606976,0.11896 v 1.58302 h 1.055018 v -1.58302 c 0.435271,0 0.806729,-0.15392 1.114496,-0.46169 0.312166,-0.31216 0.468519,-0.68605 0.468519,-1.12132 v -2.11004 h -1.055506 v 2.11004 c 0,0.14509 -0.0505,0.27037 -0.151623,0.37588 -0.03517,0.0308 -0.07256,0.0575 -0.112131,0.0794 -0.03957,0.022 -0.08132,0.0395 -0.125296,0.0526 -0.04397,0.0132 -0.0901,0.02 -0.138459,0.02 h -1.055018 c -0.145091,0 -0.270367,-0.0509 -0.375887,-0.15211 -0.101123,-0.10551 -0.15211,-0.23079 -0.15211,-0.37588 v -2.11004 z m 6.62799,0 c -0.435272,0 -0.809157,0.15587 -1.121322,0.46804 -0.307767,0.30776 -0.461205,0.67922 -0.461205,1.11449 v 2.11052 c 0,0.43527 0.153438,0.80915 0.461205,1.12133 0.312165,0.30776 0.68605,0.46169 1.121322,0.46169 h 0.527509 c 0.435273,0 0.806729,-0.15393 1.114497,-0.46169 0.312165,-0.31218 0.468518,-0.68606 0.468518,-1.12133 v -2.11052 c 0,-0.43527 -0.156353,-0.80673 -0.468518,-1.11449 -0.307768,-0.31217 -0.679224,-0.46804 -1.114497,-0.46804 z m 3.066573,0 v 3.69305 c 0,0.43527 0.153924,0.80673 0.461692,1.1145 0.101124,0.10112 0.211348,0.18707 0.330059,0.25742 0.11871,0.066 0.243987,0.11838 0.375887,0.15796 0.136297,0.0352 0.274683,0.0531 0.415376,0.0531 h 0.52751 c 0.435271,0 0.806728,-0.15393 1.114496,-0.46169 0.312165,-0.31217 0.468518,-0.68606 0.468518,-1.12133 v -3.69305 h -1.055505 v 3.69305 c 0,0.14509 -0.05244,0.27037 -0.15796,0.37589 -0.02198,0.022 -0.04869,0.0439 -0.07947,0.0659 -0.02638,0.0176 -0.05696,0.0332 -0.09214,0.0463 -0.03078,0.0132 -0.06379,0.0243 -0.09897,0.0331 -0.03077,0.005 -0.06379,0.007 -0.09897,0.007 h -0.527509 c -0.14509,0 -0.270365,-0.0529 -0.375886,-0.15845 -0.04836,-0.0484 -0.08575,-0.10323 -0.112133,-0.16478 -0.02638,-0.066 -0.03949,-0.13394 -0.03949,-0.20428 v -3.69305 z m 14.278334,0 c -0.07035,0 -0.140754,0.005 -0.211101,0.0131 -0.06596,0.008 -0.1315,0.022 -0.197451,0.0395 -0.06595,0.0177 -0.131987,0.0394 -0.197937,0.0659 -0.06156,0.0263 -0.123224,0.0569 -0.184775,0.0922 -0.05716,0.0352 -0.114456,0.075 -0.171611,0.11896 -0.05716,0.0395 -0.109599,0.0838 -0.15796,0.13212 -0.145091,0.14949 -0.259686,0.32089 -0.343222,0.51434 -0.07914,0.19346 -0.11847,0.39546 -0.11847,0.6065 v 3.69354 h 1.055018 v -1.16085 h 1.583014 v 1.16082 h 1.055018 v -3.69354 c 0,-0.43527 -0.155865,-0.80673 -0.468029,-1.1145 -0.307769,-0.31216 -0.679713,-0.46803 -1.114985,-0.46803 z m 3.165541,0 v 5.27607 h 1.055506 v -3.95729 l 1.582527,3.95729 h 1.583015 v -5.27607 h -1.055018 v 3.95681 l -1.583015,-3.95681 z m 8.573726,0 v 5.27607 h 1.05502 v -1.58302 h 1.05551 c 0.43527,0 0.80673,-0.15392 1.11449,-0.46169 0.31218,-0.31216 0.46803,-0.68605 0.46803,-1.12132 v -0.52751 c 0,-0.43527 -0.15392,-0.80867 -0.46169,-1.12083 -0.14948,-0.14509 -0.32089,-0.25726 -0.51434,-0.3364 -0.19346,-0.0835 -0.39545,-0.1253 -0.60649,-0.1253 h -1.05551 z m 4.55062,0 v 3.69305 c 0,0.43527 0.15393,0.80673 0.4617,1.1145 0.10112,0.10112 0.21085,0.18707 0.32957,0.25742 0.11871,0.066 0.24398,0.11838 0.37589,0.15796 0.13629,0.0352 0.27468,0.0531 0.41537,0.0531 h 0.52799 c 0.43528,0 0.80673,-0.15393 1.11451,-0.46169 0.31216,-0.31217 0.46802,-0.68606 0.46802,-1.12133 v -3.69305 h -1.05502 v 3.69305 c 0,0.14509 -0.0529,0.27037 -0.15845,0.37589 -0.022,0.022 -0.0482,0.0439 -0.079,0.0659 -0.0263,0.0176 -0.0574,0.0332 -0.0927,0.0463 -0.0307,0.0132 -0.0638,0.0243 -0.099,0.0331 -0.0308,0.005 -0.0633,0.007 -0.0985,0.007 h -0.52799 c -0.14509,0 -0.27037,-0.0529 -0.37589,-0.15845 -0.0484,-0.0484 -0.0858,-0.10323 -0.11213,-0.16478 -0.0263,-0.066 -0.0395,-0.13394 -0.0395,-0.20428 v -3.69305 z m 6.23212,0 c -0.43527,0 -0.80867,0.15587 -1.12084,0.46804 -0.30776,0.30776 -0.46169,0.67922 -0.46169,1.11449 0,0.43527 0.15393,0.80916 0.46169,1.12132 0.31217,0.30777 0.68557,0.46169 1.12084,0.46169 h 0.52751 c 0.14509,0 0.26842,0.0525 0.36955,0.15796 0.10551,0.10113 0.15844,0.22446 0.15844,0.36955 0,0.14509 -0.0505,0.26795 -0.15162,0.36906 -0.0352,0.0352 -0.0725,0.0638 -0.11214,0.0858 -0.0395,0.022 -0.0813,0.04 -0.12528,0.0531 -0.044,0.0132 -0.0906,0.0195 -0.13895,0.0195 h -0.52751 c -0.14509,0 -0.27036,-0.0505 -0.37589,-0.15161 -0.10112,-0.10553 -0.15162,-0.23081 -0.15162,-0.3759 h -1.05502 c 0,0.43528 0.15393,0.80916 0.46169,1.12133 0.14949,0.14509 0.32089,0.2592 0.51434,0.34274 0.19346,0.0791 0.39546,0.11896 0.6065,0.11896 h 0.52751 c 0.43527,0 0.80722,-0.15394 1.11498,-0.4617 0.31217,-0.31217 0.46803,-0.68605 0.46803,-1.12133 0,-0.43527 -0.15586,-0.80672 -0.46803,-1.11449 -0.30776,-0.31216 -0.67971,-0.46852 -1.11498,-0.46852 h -0.52751 c -0.14509,0 -0.27036,-0.0505 -0.37589,-0.15162 -0.0308,-0.0352 -0.0594,-0.0726 -0.0859,-0.11213 -0.022,-0.0395 -0.0394,-0.0813 -0.0526,-0.1253 -0.008,-0.044 -0.0132,-0.0901 -0.0132,-0.13846 0,-0.0704 0.0131,-0.13639 0.0395,-0.19794 0.0263,-0.0659 0.0638,-0.12519 0.11213,-0.17795 0.10553,-0.10112 0.2308,-0.15162 0.37589,-0.15162 h 0.52751 c 0.0704,0 0.13638,0.0131 0.19793,0.0395 0.066,0.0263 0.1252,0.0638 0.17795,0.11213 0.10113,0.10552 0.15211,0.2308 0.15211,0.37589 h 1.05502 c 0,-0.14069 -0.0174,-0.27665 -0.0526,-0.40855 -0.0352,-0.1363 -0.0881,-0.264 -0.15845,-0.38271 -0.0704,-0.11872 -0.15386,-0.22846 -0.25059,-0.32957 -0.14949,-0.14509 -0.32089,-0.25726 -0.51434,-0.3364 -0.19345,-0.0835 -0.39594,-0.1253 -0.60698,-0.1253 z m 3.06705,0 v 5.27607 h 1.05502 v -1.68881 h 1.58253 v 1.68881 h 1.05551 v -5.27607 h -1.05551 v 2.74334 h -1.58253 v -2.74334 z m 8.04574,0 v 5.27607 h 2.11053 c 0.43527,0 0.80672,-0.15393 1.11449,-0.46169 0.31217,-0.31218 0.46803,-0.68606 0.46803,-1.12133 v -0.2111 c 0,-0.21104 -0.0418,-0.41303 -0.12529,-0.60649 -0.0792,-0.19345 -0.19131,-0.36534 -0.3364,-0.51483 -0.0616,-0.0572 -0.12518,-0.10961 -0.19111,-0.15796 0.0835,-0.19785 0.1253,-0.4047 0.1253,-0.62014 0,-0.43527 -0.15587,-0.80673 -0.46804,-1.11449 -0.30777,-0.31217 -0.67922,-0.46804 -1.11449,-0.46804 z m 4.61644,0 v 5.27607 h 3.16554 v -1.05551 h -2.11004 v -4.22056 z m 5.44085,0 c -0.43528,0 -0.80868,0.15587 -1.12084,0.46804 -0.30777,0.30776 -0.46169,0.67922 -0.46169,1.11449 v 2.11052 c 0,0.43527 0.15392,0.80915 0.46169,1.12133 0.31216,0.30776 0.68556,0.46169 1.12084,0.46169 h 0.5275 c 0.43527,0 0.80722,-0.15393 1.11499,-0.46169 0.31216,-0.31218 0.46803,-0.68606 0.46803,-1.12133 v -2.11052 c 0,-0.43527 -0.15587,-0.80673 -0.46803,-1.11449 -0.30777,-0.31217 -0.67972,-0.46804 -1.11499,-0.46804 z m 7.71615,0 v 5.27558 h 1.05551 v -2.63755 h 1.05502 c 0.0484,0 0.0945,0.007 0.13846,0.0195 0.044,0.008 0.0858,0.0263 0.1253,0.0526 0.0395,0.022 0.077,0.0487 0.11212,0.0794 0.0484,0.0527 0.0858,0.11201 0.11214,0.17795 0.0263,0.0616 0.0395,0.12761 0.0395,0.19793 v 2.11053 h 1.0555 v -2.11053 c 0,-0.43527 -0.15393,-0.80916 -0.46169,-1.12132 -0.0395,-0.0395 -0.0838,-0.077 -0.13212,-0.11213 -0.044,-0.0352 -0.0901,-0.0682 -0.13846,-0.099 -0.044,-0.0308 -0.0901,-0.057 -0.13846,-0.079 l 0.87073,-1.75414 h -1.0555 l -0.79126,1.58253 h -0.79127 v -1.58253 z m 6.1663,0 c -0.43527,0 -0.80867,0.15587 -1.12083,0.46804 -0.30777,0.30776 -0.4617,0.67922 -0.4617,1.11449 0,0.43527 0.15393,0.80916 0.4617,1.12132 0.31216,0.30777 0.68556,0.46169 1.12083,0.46169 h 0.52801 c 0.14509,0 0.26793,0.0525 0.36906,0.15796 0.10551,0.10113 0.15844,0.22446 0.15844,0.36955 0,0.14509 -0.0505,0.26795 -0.15162,0.36906 -0.0352,0.0352 -0.0725,0.0638 -0.11214,0.0858 -0.0395,0.022 -0.0813,0.04 -0.12529,0.0531 -0.044,0.0132 -0.0901,0.0195 -0.13845,0.0195 h -0.52801 c -0.14509,0 -0.27036,-0.0505 -0.37589,-0.15161 -0.10111,-0.10553 -0.15162,-0.23081 -0.15162,-0.3759 h -1.05502 c 0,0.43528 0.15393,0.80916 0.4617,1.12133 0.14949,0.14509 0.32089,0.2592 0.51434,0.34274 0.19346,0.0791 0.39546,0.11896 0.60649,0.11896 h 0.52801 c 0.43527,0 0.80672,-0.15394 1.11449,-0.4617 0.31216,-0.31217 0.46803,-0.68605 0.46803,-1.12133 0,-0.43527 -0.15587,-0.80672 -0.46803,-1.11449 -0.30777,-0.31216 -0.67922,-0.46852 -1.11449,-0.46852 h -0.52801 c -0.14509,0 -0.27036,-0.0505 -0.37589,-0.15162 -0.0308,-0.0352 -0.0594,-0.0726 -0.0857,-0.11213 -0.022,-0.0395 -0.0395,-0.0813 -0.0526,-0.1253 -0.008,-0.044 -0.0131,-0.0901 -0.0131,-0.13846 0,-0.0704 0.0131,-0.13639 0.0395,-0.19794 0.0263,-0.0659 0.0638,-0.12519 0.11213,-0.17795 0.10552,-0.10112 0.2308,-0.15162 0.37589,-0.15162 h 0.528 c 0.0704,0 0.13589,0.0131 0.19744,0.0395 0.0659,0.0263 0.12567,0.0638 0.17844,0.11213 0.10112,0.10552 0.15162,0.2308 0.15162,0.37589 h 1.05502 c 0,-0.14069 -0.0175,-0.27665 -0.0526,-0.40855 -0.0352,-0.1363 -0.0881,-0.264 -0.15845,-0.38271 -0.0704,-0.11872 -0.15385,-0.22846 -0.25058,-0.32957 -0.14949,-0.14509 -0.3209,-0.25726 -0.51435,-0.3364 -0.19345,-0.0835 -0.39544,-0.1253 -0.60648,-0.1253 z m -74.919444,1.05502 h 0.527509 c 0.145091,0 0.268425,0.0529 0.369549,0.15845 0.105521,0.10113 0.158448,0.22397 0.158448,0.36906 v 2.11052 c 0,0.14509 -0.05098,0.27037 -0.15211,0.37589 -0.03517,0.0308 -0.07256,0.057 -0.112132,0.079 -0.03958,0.022 -0.08133,0.04 -0.125296,0.0531 -0.04396,0.0132 -0.09009,0.0195 -0.138459,0.0195 h -0.527509 c -0.14509,0 -0.270366,-0.0505 -0.375886,-0.15162 -0.101124,-0.10552 -0.151623,-0.2308 -0.151623,-0.37589 v -2.11052 c 0,-0.14509 0.0505,-0.26793 0.151623,-0.36906 0.10552,-0.10552 0.230796,-0.15845 0.375886,-0.15845 z m 17.344907,0 h 0.527509 c 0.14509,0 0.270367,0.0505 0.375887,0.15162 0.04836,0.0527 0.08575,0.11201 0.112132,0.17795 0.02638,0.0616 0.03997,0.12762 0.03997,0.19794 v 1.68832 h -1.583014 v -1.68832 c 0,-0.14509 0.0505,-0.27037 0.151622,-0.37589 0.05277,-0.0484 0.11006,-0.0858 0.171612,-0.11213 0.06596,-0.0264 0.133928,-0.0395 0.204275,-0.0395 z m 12.794287,0 h 1.05551 c 0.0484,0 0.0945,0.007 0.13846,0.02 0.044,0.008 0.0858,0.0263 0.1253,0.0526 0.0395,0.022 0.077,0.0482 0.11212,0.079 0.008,0.0132 0.0175,0.0263 0.0263,0.0395 0.0132,0.008 0.0244,0.0199 0.0331,0.0331 0.008,0.0132 0.0151,0.0263 0.0195,0.0395 0.009,0.0132 0.0156,0.0263 0.02,0.0395 0.008,0.0132 0.0151,0.0288 0.0195,0.0463 0.005,0.0132 0.009,0.0288 0.0137,0.0463 0.005,0.0132 0.007,0.0263 0.007,0.0395 0.005,0.0132 0.007,0.0283 0.007,0.0459 0.005,0.0132 0.007,0.0288 0.007,0.0463 v 0.52751 c 0,0.14509 -0.0525,0.27037 -0.15797,0.37588 -0.10111,0.10113 -0.22445,0.15163 -0.36954,0.15163 h -1.05502 z m 21.89552,0 h 0.52801 c 0.14509,0 0.26793,0.0529 0.36906,0.15845 0.10552,0.10113 0.15845,0.22397 0.15845,0.36906 0,0.14509 -0.0529,0.27037 -0.15845,0.37588 -0.10113,0.10113 -0.22397,0.15163 -0.36906,0.15163 h -0.52801 z m 9.00228,0 h 0.5275 c 0.14509,0 0.26843,0.0529 0.36955,0.15845 0.10552,0.10113 0.15845,0.22397 0.15845,0.36906 v 2.11052 c 0,0.14509 -0.0505,0.27037 -0.15162,0.37589 -0.0352,0.0308 -0.0725,0.057 -0.11213,0.079 -0.0395,0.022 -0.0813,0.04 -0.1253,0.0531 -0.044,0.0132 -0.0906,0.0195 -0.13895,0.0195 h -0.5275 c -0.1451,0 -0.27037,-0.0505 -0.37589,-0.15162 -0.10113,-0.10552 -0.15162,-0.2308 -0.15162,-0.37589 v -2.11052 c 0,-0.14509 0.0505,-0.26793 0.15162,-0.36906 0.10552,-0.10552 0.23079,-0.15845 0.37589,-0.15845 z m -9.00228,1.89942 h 1.05552 c 0.14509,0 0.27036,0.0505 0.37588,0.15163 0.0307,0.0352 0.057,0.0726 0.079,0.11212 0.0263,0.0395 0.0439,0.0813 0.0526,0.1253 0.0132,0.044 0.02,0.0901 0.02,0.13846 v 0.2111 c 0,0.0704 -0.0131,0.13833 -0.0395,0.20428 -0.0263,0.0616 -0.0638,0.11888 -0.11214,0.17161 -0.10551,0.10112 -0.23079,0.15162 -0.37588,0.15162 h -1.05551 z" /><path
       id="path27526"
       style="font-size:6.99048px;line-height:1.25;font-family:'chol game font';-inkscape-font-specification:'chol game font';stroke-width:0.264583"
       d="m 6.8327374,4.4453189 c -0.8673839,0 -1.63767,0.3230221 -2.2577432,0.943095 -0.6125716,0.612572 -0.929659,1.379896 -0.929659,2.246374 0,0.866477 0.3179632,1.637309 0.929659,2.257743 l 0.00155,0.00207 C 5.1969272,10.506246 5.9662596,10.82426 6.8327371,10.82426 h 0.9746175 c 0.204008,0 0.349013,0.06167 0.49196,0.210839 l 0.0041,0.0041 0.0036,0.0036 c 0.149163,0.142948 0.21084,0.286402 0.21084,0.490409 0,0.206726 -0.06101,0.35402 -0.203088,0.496094 -0.04909,0.0491 -0.0982,0.08533 -0.148312,0.113171 -0.05659,0.03144 -0.114584,0.05701 -0.177767,0.07597 -0.05599,0.0168 -0.116505,0.02584 -0.181384,0.02584 H 6.8327374 c -0.2041048,0 -0.354158,-0.0636 -0.5038452,-0.205156 C 6.1873191,11.889441 6.1237368,11.737369 6.1237368,11.533258 v -0.26355 H 3.6453352 v 0.26355 c 0,0.866477 0.3180138,1.637361 0.929659,2.257743 l 0.00155,0.0021 0.00207,0.0021 c 0.2988548,0.290065 0.6436331,0.518652 1.0293945,0.68523 l 0.00207,0.0021 h 0.00207 c 0.3884248,0.158901 0.7975249,0.240295 1.2205973,0.240295 h 0.9746175 c 0.866477,0 1.633234,-0.319102 2.2458585,-0.931726 0.620124,-0.620124 0.943611,-1.390463 0.943611,-2.257743 0,-0.866336 -0.321775,-1.6322881 -0.941544,-2.2443071 C 9.4429905,8.6680039 8.6747465,8.3438879 7.8073635,8.3438879 H 6.8327374 c -0.2044071,0 -0.3543183,-0.061694 -0.5038452,-0.203089 -0.043312,-0.050529 -0.084669,-0.103195 -0.1229899,-0.160196 -0.026199,-0.04902 -0.047632,-0.100609 -0.064595,-0.154513 -0.011255,-0.06002 -0.01757,-0.122417 -0.01757,-0.191203 0,-0.09694 0.01626,-0.181258 0.050643,-0.261482 l 0.00207,-0.00207 0.00207,-0.00413 c 0.035509,-0.08877 0.08575,-0.165827 0.1503784,-0.238228 0.1496876,-0.141562 0.299741,-0.205155 0.5038452,-0.205155 h 0.9746175 c 0.0963,0 0.180927,0.01819 0.261483,0.05271 l 0.0041,0.00207 h 0.0021 c 0.08847,0.03539 0.166696,0.084873 0.238228,0.148311 0.142426,0.150014 0.205156,0.302883 0.205156,0.507979 v 0.26355 h 2.4784006 v -0.26355 c 0,-0.282011 -0.03651,-0.558068 -0.107487,-0.824239 -0.07095,-0.273356 -0.178286,-0.533789 -0.320394,-0.773596 -0.140265,-0.236699 -0.305908,-0.454782 -0.49816,-0.655774 l -0.0036,-0.00413 -0.0041,-0.00413 C 9.7640989,5.0826611 9.4195749,4.8575262 9.0336369,4.6990502 8.6442939,4.5309254 8.2322959,4.4453189 7.8073549,4.4453189 Z m 5.4022536,0 V 4.7109357 14.722727 h 2.478402 v -3.119189 h 2.394686 v 3.119189 H 19.58648 V 4.4453189 h -2.478401 v 5.068424 h -2.394686 v -5.068424 z m 11.777059,0 c -0.867382,0 -1.63922,0.323022 -2.259294,0.943095 -0.612572,0.612572 -0.929659,1.379897 -0.929659,2.246374 v 3.8984701 c 0,0.866477 0.318014,1.63736 0.929659,2.257743 l 0.0016,0.0021 c 0.620383,0.611646 1.391784,0.929659 2.25826,0.929659 h 0.974617 c 0.866477,0 1.633234,-0.319102 2.245858,-0.931726 0.620124,-0.620124 0.941544,-1.390463 0.941544,-2.257743 V 7.6347879 c 0,-0.865777 -0.32261,-1.632536 -0.941544,-2.244307 -0.612345,-0.6210925 -1.37899,-0.945162 -2.246375,-0.945162 z m 8.406722,0 c -0.867384,0 -1.639686,0.3229711 -2.259811,0.943095 -0.612623,0.612623 -0.929659,1.38 -0.929659,2.246374 v 3.8984701 c 0,0.866374 0.317963,1.637308 0.929659,2.257743 l 0.0021,0.0021 c 0.620435,0.611697 1.391267,0.929659 2.257744,0.929659 h 0.974617 c 0.866477,0 1.633235,-0.319102 2.245858,-0.931726 0.620125,-0.620124 0.941544,-1.390463 0.941544,-2.257743 V 7.6347879 c 0,-0.865777 -0.322609,-1.632536 -0.941544,-2.244307 -0.612345,-0.6210924 -1.378474,-0.945162 -2.245858,-0.945162 z m 5.032767,0 v 0.2656168 2.2127852 h 2.437577 v 7.7990061 h 2.478402 V 6.9237209 h 2.436027 v -2.478402 z m 14.132987,0 v 0.2656168 2.2127852 h 2.437577 v 7.7990061 h 2.478402 V 6.9237209 h 2.43551 v -2.478402 z m 8.406205,0 V 4.7109357 14.722727 h 2.478401 v -3.119189 h 2.394686 v 3.119189 H 67.34222 V 4.4453189 h -2.478402 v 5.068424 h -2.394686 v -5.068424 z m 8.771557,0 V 4.7109357 14.722727 h 7.351489 V 12.243809 H 71.24069 v -1.419551 h 2.923852 V 8.7344629 H 71.24069 v -1.810742 h 3.89847 v -2.478402 z m 14.497823,0 V 4.7109357 14.722727 h 4.162536 c 0.866478,0 1.633286,-0.319154 2.245858,-0.931726 0.620073,-0.620073 0.943611,-1.390359 0.943611,-2.257743 v -0.390674 c 0,-0.423292 -0.0851,-0.83224 -0.252181,-1.2205971 l -0.0021,-0.00207 c -0.158615,-0.386814 -0.383593,-0.732399 -0.67386,-1.031462 l -0.0036,-0.00568 -0.0062,-0.00413 c -0.07891,-0.07328 -0.162874,-0.138685 -0.24598,-0.205156 0.116371,-0.336481 0.208773,-0.678971 0.208773,-1.038696 0,-0.86588 -0.322142,-1.632586 -0.941028,-2.244307 -0.612164,-0.6209125 -1.380541,-0.945162 -2.247925,-0.945162 z m 11.717113,0 c -0.141162,0 -0.283222,0.00981 -0.423746,0.027388 h -0.0021 c -0.133164,0.017756 -0.265845,0.044745 -0.398425,0.080099 -0.132825,0.03542 -0.26395,0.080466 -0.394808,0.1328084 h -0.0036 l -0.0021,0.00155 c -0.1235,0.052928 -0.247011,0.1142774 -0.36897,0.1839681 l -0.0041,0.00207 -0.0041,0.00155 c -0.110404,0.067941 -0.218565,0.1455459 -0.327629,0.2289266 -0.0027,0.00186 -0.0056,0.00381 -0.0083,0.00568 -7.42e-4,5.698e-4 -7.5e-4,0.0015 -0.0015,0.00207 -0.114254,0.079963 -0.222458,0.1676808 -0.320394,0.2656168 v 0.00207 h -0.0021 c -0.290066,0.298855 -0.519167,0.643117 -0.685746,1.028878 l -0.0021,0.00413 v 0.00207 c -0.158977,0.38861 -0.240296,0.797738 -0.240296,1.220597 V 14.72273 h 2.478919 v -2.144571 h 2.394169 V 14.72273 H 99.13922 V 7.6347879 c 0,-0.865778 -0.32262,-1.632536 -0.94155,-2.244307 -0.6121,-0.6211205 -1.378472,-0.945162 -2.245856,-0.945162 z m 5.582086,0 V 4.7109357 14.722727 h 6.37688 v -2.478918 h -3.89847 V 4.4453189 Z m 7.31015,0 V 4.7109357 14.722727 h 6.37739 v -2.478918 h -3.89847 V 4.4453189 Z m -83.85741,2.478402 h 0.974617 c 0.203699,0 0.347315,0.063587 0.49041,0.212906 l 0.0041,0.00413 0.0036,0.00362 c 0.149323,0.143101 0.21084,0.2864 0.21084,0.490409 v 3.8984701 c 0,0.205096 -0.06221,0.357449 -0.204639,0.507463 -0.04655,0.03906 -0.09562,0.07339 -0.146761,0.101802 -0.05659,0.03144 -0.114584,0.05701 -0.177767,0.07597 -0.05599,0.0168 -0.114954,0.02532 -0.179834,0.02532 h -0.974617 c -0.204111,0 -0.355705,-0.06307 -0.505396,-0.204639 -0.141571,-0.149692 -0.205155,-0.3018 -0.205155,-0.505912 V 7.6347879 c 0,-0.206418 0.06085,-0.351796 0.203088,-0.494026 0.152209,-0.152211 0.303767,-0.217041 0.507463,-0.217041 z m 8.406722,0 h 0.974617 c 0.203699,0 0.346644,0.063427 0.489893,0.212906 l 0.0041,0.00413 0.0036,0.00362 c 0.149478,0.143249 0.21084,0.286711 0.21084,0.490409 v 3.8984701 c 0,0.204789 -0.06206,0.357291 -0.204639,0.507463 -0.04681,0.03934 -0.096,0.0736 -0.146761,0.101802 -0.05659,0.03144 -0.114584,0.05701 -0.177767,0.07597 -0.056,0.0168 -0.114438,0.02532 -0.179317,0.02532 h -0.974617 c -0.204112,0 -0.356356,-0.06321 -0.505913,-0.204639 -0.141416,-0.149533 -0.205155,-0.301494 -0.205155,-0.505912 V 7.6347879 c 0,-0.206727 0.06101,-0.351953 0.203088,-0.494026 0.15206,-0.152061 0.304283,-0.217041 0.50798,-0.217041 z m 53.320257,0 h 0.709 c 0.203699,0 0.348712,0.063427 0.49196,0.212906 l 0.0041,0.00413 0.0036,0.00362 c 0.149476,0.143249 0.210839,0.286711 0.210839,0.490409 0,0.203699 -0.06239,0.355404 -0.214457,0.507463 -0.142075,0.142074 -0.289368,0.201538 -0.496094,0.201538 h -0.709 z m 9.238195,0 h 0.974618 c 0.204109,0 0.354152,0.063587 0.503845,0.205155 0.06462,0.07235 0.1169,0.149375 0.152445,0.238228 v 0.00413 l 0.0021,0.00155 c 0.03437,0.0801 0.05064,0.164978 0.05064,0.261999 V 10.488361 H 94.266157 V 7.6347879 c 0,-0.204419 0.06374,-0.356377 0.205155,-0.505912 0.07341,-0.06566 0.149206,-0.115241 0.230477,-0.150378 7.99e-4,-3.45e-4 0.0013,-0.00167 0.0021,-0.00207 0.09023,-0.03531 0.17914,-0.05271 0.273368,-0.05271 z m -9.238195,3.5098631 h 1.683618 c 0.20479,0 0.35729,0.06258 0.507462,0.205155 0.03934,0.04681 0.0736,0.09548 0.101803,0.146244 l 0.0057,0.0078 0.0062,0.0098 c 0.03131,0.04696 0.04917,0.09085 0.05839,0.136943 l 0.0021,0.01137 0.0036,0.01188 c 0.0168,0.05599 0.02584,0.114955 0.02584,0.179834 v 0.390674 c 0,0.09695 -0.01809,0.18734 -0.05478,0.279053 -0.03471,0.07912 -0.0852,0.154042 -0.150379,0.226859 -0.149693,0.141572 -0.3018,0.205156 -0.505912,0.205156 H 85.739029 Z M 3.8287865,19.675913 v 0.26355 10.011792 H 6.3071881 V 19.675913 Z m 3.8984694,0 v 0.26355 10.011792 H 10.205658 V 23.7537 l 2.478402,6.197555 h 3.369303 V 19.675913 h -2.478402 v 6.201172 l -2.480468,-6.201172 z m 9.3808231,0 v 0.26355 2.212785 h 2.43551 v 7.799007 h 2.478402 v -7.799007 h 2.437577 v -2.476335 z m 11.412223,0 c -0.867384,0 -1.639686,0.320904 -2.259811,0.941028 -0.612623,0.612623 -0.929659,1.38 -0.929659,2.246374 v 3.89847 c 0,0.866373 0.317912,1.637257 0.929659,2.257744 l 0.0021,0.0021 c 0.620487,0.611747 1.39137,0.929659 2.257744,0.929659 h 0.974617 c 0.866373,0 1.631167,-0.319103 2.243791,-0.931726 0.620125,-0.620125 0.943611,-1.390362 0.943611,-2.257744 v -3.89847 c 0,-0.866438 -0.321876,-1.63239 -0.941544,-2.244307 -0.612247,-0.620992 -1.378475,-0.943095 -2.245858,-0.943095 z m 11.124902,0 v 0.26355 2.212785 h 2.437577 v 7.799007 h 2.478401 v -7.799007 h 2.43551 v -2.476335 z m 8.406204,0 v 0.26355 10.011792 h 2.478402 v -3.11919 h 2.394686 v 3.11919 h 2.478401 V 19.675913 H 52.924496 V 24.74227 H 50.52981 v -5.066357 z m 8.771558,0 v 0.26355 10.011792 h 7.351489 V 27.472336 H 59.301367 V 26.052785 H 62.22522 V 23.96299 h -2.923853 v -1.810742 h 3.89847 v -2.476335 z m 14.497822,0 v 0.26355 10.011792 h 2.478402 v -3.11919 h 2.394685 v 3.11919 h 2.478402 V 19.675913 H 76.193875 V 24.74227 H 73.79919 v -5.066357 z m 11.777575,0 c -0.867383,0 -1.637618,0.320904 -2.257743,0.941028 -0.612623,0.612623 -0.929659,1.38 -0.929659,2.246374 v 3.89847 c 0,0.866373 0.315845,1.637257 0.927592,2.257744 h 0.0021 v 0.0021 c 0.620487,0.611746 1.39137,0.929659 2.257743,0.929659 h 0.974618 c 0.866374,0 1.633182,-0.319052 2.245857,-0.931726 0.620176,-0.620176 0.943612,-1.390465 0.943612,-2.257744 v -3.89847 c 0,-0.86728 -0.324118,-1.634077 -0.945162,-2.246374 -0.611774,-0.618936 -1.378427,-0.941028 -2.244307,-0.941028 z m 5.400187,0 v 0.26355 10.011792 h 6.376872 v -2.478919 h -3.89847 v -7.796423 z m 7.310665,0 v 0.26355 10.011792 h 7.351495 v -2.478919 h -4.873092 v -1.419551 h 2.923852 V 23.96299 h -2.923852 v -1.810742 h 3.898472 v -2.476335 z m -67.288913,2.476335 h 0.974617 c 0.203699,0 0.346645,0.06343 0.489893,0.212907 l 0.0041,0.0041 0.0036,0.0036 c 0.149476,0.143249 0.211357,0.286713 0.211357,0.490409 v 3.89847 c 0,0.204788 -0.06272,0.357429 -0.205156,0.507463 -0.04681,0.03934 -0.096,0.0736 -0.146761,0.101802 -0.05659,0.03144 -0.114585,0.05701 -0.177767,0.07597 -0.05513,0.01654 -0.113531,0.02532 -0.179317,0.02532 h -0.974617 c -0.204418,0 -0.356513,-0.06336 -0.505913,-0.204638 -0.141276,-0.149402 -0.205155,-0.301497 -0.205155,-0.505913 v -3.89847 c 0,-0.206726 0.06101,-0.351951 0.203088,-0.494026 0.15206,-0.15206 0.304282,-0.217041 0.50798,-0.217041 z m 54.578061,0 h 0.974618 c 0.2037,0 0.348866,0.06359 0.491959,0.212907 l 0.0041,0.0041 0.0036,0.0036 c 0.149323,0.143102 0.21084,0.286403 0.21084,0.490409 v 3.89847 c 0,0.204111 -0.0632,0.356354 -0.204639,0.505913 -0.04744,0.04009 -0.09527,0.07475 -0.146761,0.103352 -0.05659,0.03144 -0.116652,0.05701 -0.179834,0.07597 -0.05513,0.01654 -0.113528,0.02532 -0.179317,0.02532 h -0.974618 c -0.204417,0 -0.356512,-0.06336 -0.505912,-0.204638 -0.141272,-0.149399 -0.203088,-0.3015 -0.203088,-0.505913 v -3.89847 c 0,-0.206726 0.05895,-0.351951 0.201021,-0.494026 0.15206,-0.15206 0.304282,-0.217041 0.507979,-0.217041 z" /><rect
       style="fill:#000000;fill-opacity:1;stroke:none;stroke-width:4.99999;stroke-linecap:round;stroke-linejoin:round;stroke-dasharray:none;stroke-dashoffset:7.8;stroke-opacity:1"
       id="rect21513"
       width="15.663239"
       height="40.394093"
       x="-183.12273"
       y="8.4850922"
       ry="1.6481761"
       transform="rotate(-90)" /><rect
       style="fill:#314655;fill-opacity:1;stroke:none;stroke-width:0.793753;stroke-linejoin:round;stroke-dasharray:none;stroke-opacity:1"
       id="rect21515"
       width="10.716956"
       height="5.5694041"
       x="169.93265"
       y="10.133271"
       transform="matrix(0,1,1,0,0,0)" /><path
       id="path21517"
       style="fill:#ffffff;stroke-width:0.999999;stroke-linejoin:round"
       d="m 10.133266,169.68565 v 4.21819 c 0.295587,0.23235 0.578861,0.48234 0.847565,0.74999 1.608218,1.6142 2.592789,3.74516 2.779711,6.01606 a 0.24733909,0.24733909 0 0 0 0.246993,0.22767 h 1.695453 a 0.24733909,0.24733909 0 0 0 0.247318,-0.24828 v -10.71663 a 0.24733909,0.24733909 0 0 0 -0.247318,-0.247 z" /><rect
       style="opacity:0.435532;fill:url(#linearGradient21527);fill-opacity:1;stroke:none;stroke-width:4.23334;stroke-linecap:round;stroke-linejoin:round;stroke-dasharray:none;stroke-dashoffset:7.8;stroke-opacity:1"
       id="rect21525"
       width="5.7706718"
       height="10.716955"
       x="15.571276"
       y="169.93265"
       ry="0" /><rect
       style="fill:#314655;fill-opacity:1;stroke:none;stroke-width:0.793753;stroke-linejoin:round;stroke-dasharray:none;stroke-opacity:1"
       id="rect21531"
       width="10.716956"
       height="5.1475511"
       x="169.93265"
       y="42.08287"
       transform="matrix(0,1,1,0,0,0)" /><path
       id="path21533"
       style="fill:#ffffff;stroke-width:0.999999;stroke-linejoin:round"
       d="m 42.082543,169.68565 a 0.24733909,0.24733909 0 0 0 -0.247311,0.247 v 1.69545 a 0.24733909,0.24733909 0 0 0 0.227669,0.24571 c 1.892577,0.15579 3.687535,0.86671 5.16752,2.03003 v -4.21819 z m 0.0043,9.21891 a 0.24733909,0.24733909 0 0 0 -0.251823,0.24763 l 6.23e-4,1.49709 a 0.24733909,0.24733909 0 0 0 0.246993,0.24828 h 1.498058 a 0.24733909,0.24733909 0 0 0 0.233788,-0.32879 c -0.132077,-0.38159 -0.347483,-0.72928 -0.630526,-1.01726 a 0.24733909,0.24733909 0 0 0 -0.0038,-0.003 c -0.287934,-0.28271 -0.634676,-0.4981 -1.016252,-0.6302 a 0.24733909,0.24733909 0 0 0 -0.07696,-0.0139 z" /><path
       id="rect21546"
       style="fill:none;fill-opacity:0.455307;stroke:#ffffff;stroke-width:0.529167;stroke-linejoin:round;stroke-dasharray:0.529167, 0.529167;stroke-dashoffset:0;stroke-opacity:1"
       d="M 10.133266,169.93265 H 4.9857125 v 10.71695 h 5.1475535 m 37.097155,0 h 5.569398 v -10.71695 h -5.569398"
       sodipodi:nodetypes="cccccccc" /><rect
       style="fill:#000000;fill-opacity:1;stroke:none;stroke-width:4.99999;stroke-linecap:round;stroke-linejoin:round;stroke-dasharray:none;stroke-dashoffset:7.8;stroke-opacity:1"
       id="rect21644"
       width="28.028963"
       height="40.394093"
       x="-220.21988"
       y="8.4850922"
       ry="1.6481761"
       transform="rotate(-90)" /><g
       id="g19884"
       transform="matrix(0.62315431,0,0,0.62315431,-6.3543688,71.831858)"
       style="stroke-width:1.60474"><rect
         style="fill:#314655;fill-opacity:1;stroke:none;stroke-width:1.27377;stroke-linejoin:round;stroke-dasharray:none;stroke-opacity:1"
         id="rect33"
         width="17.197918"
         height="17.197918"
         x="27.781244"
         y="197.1136" /><path
         id="path36"
         style="fill:#5d7789;fill-opacity:1;stroke-width:9.34093;stroke-linecap:round;stroke-linejoin:round"
         d="m 30.4271,197.11365 a 14.552079,14.552083 0 0 0 4.2622,10.28988 14.552079,14.552083 0 0 0 10.289884,4.2622 v 2.64584 H 27.781267 v -17.19792 z" /><path
         id="path37"
         style="fill:#ffffff;stroke-width:1.60474;stroke-linejoin:round"
         d="m 27.781241,196.71625 c -0.218996,0 -0.396346,0.1779 -0.396346,0.39687 v 17.19895 c 0,0.21899 0.17735,0.39658 0.396346,0.39687 h 2.646336 c 0.21918,0 0.396875,-0.17769 0.396875,-0.39687 v -17.19895 c 0,-0.21918 -0.177695,-0.39685 -0.396875,-0.39687 z m 14.79497,0 c -0.273394,0 -0.465217,0.26947 -0.375179,0.52763 0.211984,0.61232 0.557609,1.16874 1.01182,1.63089 0,0.003 0.0029,0.004 0.004,0.006 0.462148,0.45421 1.020128,0.79986 1.632453,1.01181 0.258154,0.09 0.527897,-0.10178 0.527632,-0.37515 v -2.404 c 0,-0.21958 -0.178858,-0.39719 -0.398436,-0.39635 z m 2.417921,14.79497 c -0.04739,-0.003 -0.09628,0.005 -0.1447,0.0222 -0.612325,0.21199 -1.170305,0.55761 -1.632453,1.01182 0,0.003 -0.0029,0.004 -0.004,0.006 -0.45421,0.46217 -0.799835,1.01856 -1.011819,1.63091 -0.08998,0.25813 0.101785,0.52787 0.375179,0.52761 h 2.402417 c 0.219577,0 0.398118,-0.17679 0.398436,-0.39637 v -2.40398 c 2.11e-4,-0.22214 -0.177694,-0.39039 -0.382905,-0.3974 z" /></g><g
       id="g21659"
       transform="matrix(0.62315431,0,0,-0.62315431,-6.3543628,315.84751)"
       style="stroke-width:1.60474"><rect
         style="fill:#314655;fill-opacity:1;stroke:none;stroke-width:1.27377;stroke-linejoin:round;stroke-dasharray:none;stroke-opacity:1"
         id="rect21655"
         width="17.197918"
         height="17.197918"
         x="-194.46777"
         y="47.625"
         transform="rotate(-90)" /><path
         id="path21657"
         style="fill:#ffffff;stroke-width:1.60474;stroke-linejoin:round"
         d="m 47.227613,194.46784 a 0.39691468,0.39691468 0 0 0 0.396875,0.39635 h 17.198944 a 0.39691468,0.39691468 0 0 0 0.39688,-0.39635 v -17.19741 a 0.39691468,0.39691468 0 0 0 -0.39688,-0.39841 h -2.720733 a 0.39691468,0.39691468 0 0 0 -0.396372,0.36534 c -0.299958,3.64421 -1.879944,7.06384 -4.460716,9.65419 -2.590192,2.58011 -6.008952,4.16132 -9.652635,4.46125 a 0.39691468,0.39691468 0 0 0 -0.365363,0.39428 z m 0,-14.79497 a 0.39691468,0.39691468 0 0 0 0.527632,0.37518 c 0.612325,-0.21198 1.168744,-0.55761 1.630891,-1.01182 a 0.39691468,0.39691468 0 0 0 0.0061,-0.004 c 0.45421,-0.46214 0.799862,-1.02012 1.011819,-1.63248 a 0.39691468,0.39691468 0 0 0 -0.375152,-0.5276 h -2.403978 a 0.39691468,0.39691468 0 0 0 -0.396372,0.39843 z" /></g><g
       id="g21665"
       transform="matrix(0,0.62315431,0.62315431,0,-74.777392,164.98636)"
       style="stroke-width:1.60474"><rect
         style="fill:#314655;fill-opacity:1;stroke:none;stroke-width:1.27377;stroke-linejoin:round;stroke-dasharray:none;stroke-opacity:1"
         id="rect21661"
         width="17.197918"
         height="17.197918"
         x="-194.46777"
         y="47.625"
         transform="rotate(-90)" /><path
         id="path21663"
         style="fill:#ffffff;stroke-width:1.60474;stroke-linejoin:round"
         d="m 47.227613,194.46784 a 0.39691468,0.39691468 0 0 0 0.396875,0.39635 h 17.198944 a 0.39691468,0.39691468 0 0 0 0.39688,-0.39635 v -17.19741 a 0.39691468,0.39691468 0 0 0 -0.39688,-0.39841 h -2.720733 a 0.39691468,0.39691468 0 0 0 -0.396372,0.36534 c -0.299958,3.64421 -1.879944,7.06384 -4.460716,9.65419 -2.590192,2.58011 -6.008952,4.16132 -9.652635,4.46125 a 0.39691468,0.39691468 0 0 0 -0.365363,0.39428 z m 0,-14.79497 a 0.39691468,0.39691468 0 0 0 0.527632,0.37518 c 0.612325,-0.21198 1.168744,-0.55761 1.630891,-1.01182 a 0.39691468,0.39691468 0 0 0 0.0061,-0.004 c 0.45421,-0.46214 0.799862,-1.02012 1.011819,-1.63248 a 0.39691468,0.39691468 0 0 0 -0.375152,-0.5276 h -2.403978 a 0.39691468,0.39691468 0 0 0 -0.396372,0.39843 z" /></g><path
       id="path21667"
       style="fill:#f99bad;fill-opacity:1;stroke-width:0.77504;stroke-linecap:round;stroke-linejoin:round;stroke-dashoffset:7.8"
       d="m 64.214286,193.76498 a 0.65950595,0.65950595 0 0 0 -0.466287,0.19225 0.65950595,0.65950595 0 0 0 0,0.93355 l 0.954479,0.95449 -0.954479,0.95512 a 0.65950595,0.65950595 0 0 0 0,0.93226 0.65950595,0.65950595 0 0 0 0.932257,0 l 0.955121,-0.95448 0.95448,0.95448 a 0.65950595,0.65950595 0 0 0 0.933547,0 0.65950595,0.65950595 0 0 0 0,-0.93226 l -0.955121,-0.95512 0.955121,-0.95449 a 0.65950595,0.65950595 0 0 0 0,-0.93355 0.65950595,0.65950595 0 0 0 -0.46597,-0.19225 0.65950595,0.65950595 0 0 0 -0.467577,0.19225 l -0.95448,0.95513 -0.955121,-0.95513 a 0.65950595,0.65950595 0 0 0 -0.46597,-0.19225 z m -8.307569,2.94363 c -0.06842,-9.4e-4 -0.138833,0.0212 -0.205129,0.0731 l -3.556754,2.77488 c -0.123073,0.0964 -0.198687,0.27436 -0.198369,0.46661 5.7e-5,0.19174 0.07562,0.36886 0.198369,0.465 l 3.556754,2.77521 c 0.265189,0.20757 0.597187,-0.0508 0.597355,-0.465 v -1.38793 h 2.904011 v 1.38793 c 2.12e-4,0.41416 0.332179,0.67258 0.59735,0.465 l 3.556434,-2.77521 c 0.122718,-0.0961 0.198295,-0.27329 0.19837,-0.465 3.48e-4,-0.19228 -0.07529,-0.37018 -0.19837,-0.46661 l -3.556434,-2.7749 c -0.265171,-0.20759 -0.597144,0.0508 -0.59735,0.465 v 1.38824 h -2.904011 v -1.38824 c -1.31e-4,-0.31064 -0.186977,-0.53356 -0.392226,-0.5381 z" /><path
       id="path22976"
       style="fill:#9bf9be;fill-opacity:1;stroke-width:0.77504;stroke-linecap:round;stroke-linejoin:round;stroke-dashoffset:7.8"
       d="m 86.476125,193.76498 a 0.65950595,0.65950595 0 0 0 -0.46597,0.19225 l -2.375894,2.3759 -0.883633,-0.88363 a 0.65950595,0.65950595 0 0 0 -0.933547,0 0.65950595,0.65950595 0 0 0 0,0.93226 l 1.350893,1.35089 a 0.65957195,0.65957195 0 0 0 0.932581,0 l 2.842824,-2.84187 a 0.65950595,0.65950595 0 0 0 0,-0.93355 0.65950595,0.65950595 0 0 0 -0.467254,-0.19225 z m -9.306174,0.45341 c -0.191745,6e-5 -0.368857,0.0757 -0.464997,0.19838 l -2.775205,3.55675 c -0.20758,0.26519 0.05085,0.59719 0.465004,0.59735 h 1.38792 v 2.90402 h -1.38792 c -0.414168,2.1e-4 -0.67259,0.33186 -0.465004,0.59703 l 2.775205,3.55675 c 0.09613,0.12272 0.27329,0.19829 0.464997,0.19837 0.192281,3.5e-4 0.370191,-0.0753 0.466618,-0.19837 l 2.774875,-3.55675 c 0.207585,-0.26517 -0.05085,-0.59682 -0.464997,-0.59703 h -1.388251 v -2.90402 h 1.388251 c 0.310636,-1.3e-4 0.533563,-0.18697 0.5381,-0.39222 0.0012,-0.0684 -0.02119,-0.13883 -0.07311,-0.20513 l -2.774875,-3.55675 c -0.0964,-0.12307 -0.274368,-0.19869 -0.466618,-0.19838 z" /></g></svg>
