<?xml version="1.0" encoding="UTF-8" standalone="no"?>
<!-- Created with Inkscape (http://www.inkscape.org/) -->

<svg
   width="400"
   height="145"
   viewBox="0 0 105.83333 38.364583"
   version="1.1"
   id="svg1"
   inkscape:version="1.4 (e7c3feb100, 2024-10-09)"
   sodipodi:docname="hole.svg"
   xmlns:inkscape="http://www.inkscape.org/namespaces/inkscape"
   xmlns:sodipodi="http://sodipodi.sourceforge.net/DTD/sodipodi-0.dtd"
   xmlns="http://www.w3.org/2000/svg"
   xmlns:svg="http://www.w3.org/2000/svg">
  <sodipodi:namedview
     id="namedview1"
     pagecolor="#5d7789"
     bordercolor="#666666"
     borderopacity="1.0"
     inkscape:showpageshadow="2"
     inkscape:pageopacity="0.0"
     inkscape:pagecheckerboard="0"
     inkscape:deskcolor="#d1d1d1"
     inkscape:document-units="px"
     inkscape:zoom="1.2759368"
     inkscape:cx="125.78993"
     inkscape:cy="3.9186893"
     inkscape:window-width="1920"
     inkscape:window-height="973"
     inkscape:window-x="0"
     inkscape:window-y="32"
     inkscape:window-maximized="1"
     inkscape:current-layer="layer1" />
  <defs
     id="defs1" />
  <g
     inkscape:label="Layer 1"
     inkscape:groupmode="layer"
     id="layer1">
    <path
       id="path206"
       style="fill:#314655;fill-opacity:1;stroke:none;stroke-width:0.793747;stroke-linecap:butt;stroke-linejoin:miter;stroke-dasharray:none;stroke-dashoffset:7.8;stroke-opacity:1"
       d="m 0.860118,4.347682 v 33.454295 h 8.875448 v -9.832473 h 6.48589 v 9.832473 h 8.875448 V 4.347682 H 16.221456 V 20.323964 H 9.735566 V 4.347682 Z m 38.227132,0 c -2.806965,0 -5.496137,1.121754 -7.479136,3.104727 -1.983052,1.982999 -3.099541,4.673335 -3.099541,7.478606 v 1.365806 9.555498 1.365809 c 0,2.805244 1.116489,5.496657 3.099541,7.479646 1.982999,1.982988 4.672171,3.104203 7.479136,3.104203 h 1.365806 0.347794 1.365806 c 2.805218,0 5.500423,-1.115608 7.484295,-3.099552 1.983872,-1.983877 3.099541,-4.679053 3.099541,-7.484297 V 14.931015 c 0,-2.805271 -1.115669,-5.49992 -3.099541,-7.483792 C 47.667079,5.463298 44.971874,4.347682 42.166656,4.347682 H 40.80085 40.453056 Z m 17.074938,0 V 37.801977 H 77.3247 V 28.927069 H 65.037609 V 4.347682 Z m 24.574205,0 V 37.801977 H 104.97315 V 28.927069 H 89.611823 l 0.007,-3.412197 h 9.21803 v -7.645527 h -9.21803 l -0.007,-4.646744 H 101.90409 V 4.347682 Z M 39.08725,13.222601 h 3.079406 c 0.456962,0 0.882676,0.177271 1.204568,0.499189 0.321919,0.321972 0.49919,0.75221 0.49919,1.209225 v 12.287113 c 0,0.456935 -0.177271,0.887854 -0.49919,1.209746 -0.321892,0.321918 -0.747606,0.499195 -1.204568,0.499195 H 39.08725 c -0.457015,0 -0.88265,-0.177277 -1.204569,-0.499195 -0.32123,-0.321204 -0.498686,-0.751435 -0.498686,-1.209746 V 14.931015 c 0,-0.458311 0.177323,-0.887941 0.498686,-1.209225 0.321919,-0.321839 0.747554,-0.499189 1.204569,-0.499189 z" />
    <path
       id="rect240"
       style="fill:#ffffff;fill-opacity:1;stroke:none;stroke-width:0.793747;stroke-linecap:butt;stroke-linejoin:miter;stroke-dasharray:none;stroke-dashoffset:7.8;stroke-opacity:1"
       d="M 0.86041258 0.56275634 L 0.86041258 34.017044 L 9.7353229 34.017044 L 9.7353229 24.184053 L 16.221749 24.184053 L 16.221749 34.017044 L 25.096659 34.017044 L 25.096659 0.56275634 L 16.221749 0.56275634 L 16.221749 16.539042 L 9.7353229 16.539042 L 9.7353229 0.56275634 L 0.86041258 0.56275634 z M 39.087536 0.56275634 C 36.280571 0.56275634 33.591406 1.6839866 31.608406 3.6669596 C 29.625354 5.6499586 28.508854 8.3408185 28.508854 11.146089 L 28.508854 12.511898 L 28.508854 22.067386 L 28.508854 23.433195 C 28.508854 26.23844 29.625354 28.929335 31.608406 30.912324 C 33.591406 32.895312 36.280571 34.017044 39.087536 34.017044 L 40.453344 34.017044 L 40.801126 34.017044 L 42.166934 34.017044 C 44.972152 34.017044 47.666842 32.901436 49.650715 30.917492 C 51.634587 28.933615 52.750267 26.23844 52.750267 23.433195 L 52.750267 11.146089 C 52.750267 8.3408185 51.634587 5.6461807 49.650715 3.6623087 C 47.666842 1.6783837 44.972152 0.56275634 42.166934 0.56275634 L 40.801126 0.56275634 L 40.453344 0.56275634 L 39.087536 0.56275634 z M 56.162462 0.56275634 L 56.162462 34.017044 L 77.324478 34.017044 L 77.324478 25.142134 L 65.037373 25.142134 L 65.037373 0.56275634 L 56.162462 0.56275634 z M 80.736672 0.56275634 L 80.736672 34.017044 L 104.97344 34.017044 L 104.97344 25.142134 L 89.611583 25.142134 L 89.618817 21.729939 L 98.836342 21.729939 L 98.836342 14.084411 L 89.618817 14.084411 L 89.611583 9.4376666 L 101.90386 9.4376666 L 101.90386 0.56275634 L 80.736672 0.56275634 z M 39.087536 9.4376666 L 42.166934 9.4376666 C 42.623896 9.4376666 43.049103 9.614943 43.370995 9.936861 C 43.692913 10.258833 43.87019 10.689074 43.87019 11.146089 L 43.87019 23.433195 C 43.87019 23.890131 43.692913 24.321048 43.370995 24.64294 C 43.049103 24.964859 42.623896 25.142134 42.166934 25.142134 L 39.087536 25.142134 C 38.630521 25.142134 38.204876 24.964859 37.882958 24.64294 C 37.561727 24.321736 37.383764 23.891507 37.383764 23.433195 L 37.383764 11.146089 C 37.383764 10.687778 37.561595 10.258145 37.882958 9.936861 C 38.204876 9.615022 38.630521 9.4376666 39.087536 9.4376666 z " />
    <path
       style="fill-opacity:1;stroke-dashoffset:7.8;fill:#93b0c5"
       d="M 2.8613281,2.5625 H 7.734375 V 18.539062 H 18.222656 V 2.5625 h 4.873047 V 32.017578 H 18.222656 V 22.183594 H 7.734375 v 9.833984 H 2.8613281 Z m 36.2265629,0 h 1.365234 0.347656 1.365235 c 2.274955,0 4.461655,0.9049729 6.070312,2.5136719 C 49.845011,6.6848544 50.75,8.8714919 50.75,11.146484 v 12.28711 c 0,2.274962 -0.905115,4.461751 -2.513672,6.070312 -1.608651,1.608709 -3.795348,2.513672 -6.070312,2.513672 h -1.365235 -0.347656 -1.365234 c -2.274133,0 -4.454068,-0.909155 -6.064454,-2.519531 -1.608765,-1.608715 -2.513671,-3.789881 -2.513671,-6.064453 v -1.365235 -9.55664 -1.365235 c 0,-2.2746023 0.904893,-4.4557174 2.513671,-6.0644528 C 34.633705,3.4717861 36.81352,2.5625 39.087891,2.5625 Z m 19.074218,0 h 4.875 v 24.580078 h 12.28711 v 4.875 h -17.16211 z m 24.574219,0 h 17.167969 v 4.875 H 87.609375 l 0.01172,8.646484 h 9.214843 v 3.646485 h -9.21289 l -0.01563,7.412109 h 15.365242 v 4.875 H 82.736328 Z m -43.648437,4.875 c -0.974447,0 -1.933656,0.400621 -2.619141,1.0859375 -0.690929,0.6907596 -1.085938,1.6473845 -1.085938,2.6230465 v 12.28711 c 0,0.976046 0.39444,1.931606 1.085938,2.623047 0.685622,0.685624 1.644929,1.085937 2.619141,1.085937 h 3.078125 c 0.974218,0 1.93415,-0.40089 2.61914,-1.085937 0.693405,-0.693349 1.085938,-1.648819 1.085938,-2.623047 v -12.28711 c 0,-0.974217 -0.393726,-1.9307182 -1.085938,-2.6230465 C 44.100168,7.8383944 43.140238,7.4375 42.166016,7.4375 Z"
       id="path1"
       sodipodi:nodetypes="cccccccccccccsccscsscsccscsccscsccccccccccccccccccccsssscsscsscss" />
    <path
       id="path2"
       style="fill-opacity:1;stroke-dashoffset:7.8;fill:#5d7789"
       d="M 2.861324 2.5626342 L 2.861324 4.3475382 L 7.7344115 4.3475382 L 7.7344115 2.5626342 L 2.861324 2.5626342 z M 18.22266 2.5626342 L 18.22266 4.3475382 L 23.095747 4.3475382 L 23.095747 2.5626342 L 18.22266 2.5626342 z M 39.088053 2.5626342 C 36.813682 2.5626342 34.633575 3.4716151 33.023307 5.0818602 C 31.414529 6.6905956 30.509765 8.8720039 30.509765 11.146606 L 30.509765 12.511898 L 30.509765 12.93151 C 30.509765 10.656908 31.414529 8.4760163 33.023307 6.8672809 C 34.633575 5.2570358 36.813682 4.3475382 39.088053 4.3475382 L 40.453344 4.3475382 L 40.80061 4.3475382 L 42.165901 4.3475382 C 44.440856 4.3475382 46.627674 5.2528975 48.236331 6.8615965 C 49.845014 8.470279 50.749873 10.656518 50.749873 12.93151 L 50.749873 11.146606 C 50.749873 8.8716141 49.845014 6.6848583 48.236331 5.0761758 C 46.627674 3.4674768 44.440856 2.5626342 42.165901 2.5626342 L 40.80061 2.5626342 L 40.453344 2.5626342 L 39.088053 2.5626342 z M 58.16234 2.5626342 L 58.16234 4.3475382 L 63.036978 4.3475382 L 63.036978 2.5626342 L 58.16234 2.5626342 z M 82.73655 2.5626342 L 82.73655 4.3475382 L 99.904494 4.3475382 L 99.904494 2.5626342 L 82.73655 2.5626342 z M 87.609121 9.2226927 L 87.621007 17.869193 L 96.835948 17.869193 L 96.835948 16.083772 L 87.621007 16.083772 L 87.611705 9.2226927 L 87.609121 9.2226927 z M 7.7344115 18.53892 L 7.7344115 20.32434 L 18.22266 20.32434 L 18.22266 18.53892 L 7.7344115 18.53892 z M 35.382852 23.433711 L 35.382852 25.218615 C 35.382852 26.194661 35.777076 27.15027 36.468574 27.841711 C 37.154196 28.527335 38.113841 28.927949 39.088053 28.927949 L 42.165901 28.927949 C 43.140119 28.927949 44.100389 28.526758 44.785379 27.841711 C 45.478784 27.148362 45.871101 26.192843 45.871101 25.218615 L 45.871101 23.433711 C 45.871101 24.407939 45.478784 25.363458 44.785379 26.056807 C 44.100389 26.741854 43.140119 27.142529 42.165901 27.142529 L 39.088053 27.142529 C 38.113841 27.142529 37.154196 26.742431 36.468574 26.056807 C 35.777076 25.365366 35.382852 24.409757 35.382852 23.433711 z M 63.036978 27.142529 L 63.036978 28.927949 L 75.324083 28.927949 L 75.324083 27.142529 L 63.036978 27.142529 z M 87.611188 27.142529 L 87.607571 28.927949 L 102.97252 28.927949 L 102.97252 27.142529 L 87.611188 27.142529 z " />
  </g>
</svg>
