<?xml version="1.0" encoding="UTF-8" standalone="no"?>
<!-- Created with Inkscape (http://www.inkscape.org/) -->

<svg
   width="182"
   height="70"
   viewBox="0 0 48.154166 18.520832"
   version="1.1"
   id="svg1"
   inkscape:version="1.4 (e7c3feb100, 2024-10-09)"
   sodipodi:docname="logo.svg"
   inkscape:export-filename="logo.png"
   inkscape:export-xdpi="401.24081"
   inkscape:export-ydpi="401.24081"
   xmlns:inkscape="http://www.inkscape.org/namespaces/inkscape"
   xmlns:sodipodi="http://sodipodi.sourceforge.net/DTD/sodipodi-0.dtd"
   xmlns="http://www.w3.org/2000/svg"
   xmlns:svg="http://www.w3.org/2000/svg">
  <sodipodi:namedview
     id="namedview1"
     pagecolor="#5d7789"
     bordercolor="#666666"
     borderopacity="1.0"
     inkscape:showpageshadow="2"
     inkscape:pageopacity="0.0"
     inkscape:pagecheckerboard="0"
     inkscape:deskcolor="#d1d1d1"
     inkscape:document-units="px"
     inkscape:zoom="3.7645506"
     inkscape:cx="76.370337"
     inkscape:cy="28.423047"
     inkscape:window-width="1920"
     inkscape:window-height="973"
     inkscape:window-x="0"
     inkscape:window-y="32"
     inkscape:window-maximized="1"
     inkscape:current-layer="layer1"
     showgrid="false">
    <inkscape:grid
       id="grid1"
       units="px"
       originx="0"
       originy="0"
       spacingx="0.26458333"
       spacingy="0.26458333"
       empcolor="#0099e5"
       empopacity="0.30196078"
       color="#0099e5"
       opacity="0.14901961"
       empspacing="5"
       enabled="true"
       visible="false" />
  </sodipodi:namedview>
  <defs
     id="defs1" />
  <g
     inkscape:label="Layer 1"
     inkscape:groupmode="layer"
     id="layer1">
    <path
       id="path87"
       style="font-size:10.5833px;line-height:1.25;font-family:'chol game font';-inkscape-font-specification:'chol game font';fill:#314655;fill-opacity:1;stroke:none;stroke-width:0.264583"
       d="m 22.261137,4.7885912 v 9.1911698 h 3.71296 c 0.77288,0 1.4517,-0.28383 1.99987,-0.831991 0.54815,-0.548163 0.82993,-1.226994 0.82993,-1.999878 v -0.353466 c 0,-0.772884 -0.28178,-1.4522318 -0.82993,-2.0003948 -0.0742,-0.0742 -0.16138,-0.140002 -0.24804,-0.206706 0.11355,-0.317073 0.1974,-0.638476 0.1974,-0.966866 0,-0.772884 -0.28228,-1.453783 -0.83044,-2.001945 -0.54816,-0.548163 -1.22906,-0.829923 -2.00195,-0.829923 z m 10.23813,3.175 c -0.77288,0 -1.4517,0.281761 -1.99987,0.829923 -0.54815,0.548161 -0.82993,1.2290608 -0.82993,2.0019448 v 6.359302 h 2.13269 v -1.941484 h 2.27531 v 1.941484 h 2.13476 v -6.359302 c 0,-0.772884 -0.28177,-1.4537828 -0.82993,-2.0019448 -0.54817,-0.548162 -1.22699,-0.829923 -1.99987,-0.829923 z m 4.57854,-4.2333333 v 9.1911701 h 5.13251 v -2.134753 h -2.99982 V 3.7302579 Z m 5.75986,2.1166666 v 9.1911695 h 5.1325 v -2.134753 h -2.99775 V 5.8469245 Z m -18.44384,1.0764197 h 0.69711 c 0.20285,0 0.34955,0.06202 0.48266,0.204639 l 0.004,0.0062 0.006,0.0036 c 0.14262,0.133111 0.20516,0.279809 0.20516,0.482658 0,0.202843 -0.065,0.358012 -0.21084,0.503845 -0.13189,0.131888 -0.28049,0.19327 -0.48628,0.19327 h -0.69763 z m 8.10544,3.1749998 h 5.2e-4 0.88264 c 0.20285,0 0.34696,0.06201 0.48007,0.204639 l 0.006,0.0062 0.004,0.0036 c 0.14262,0.133111 0.20516,0.279809 0.20516,0.482658 v 2.636532 h -2.27583 v -2.636532 c 0,-0.205794 0.0619,-0.354391 0.19379,-0.486275 0.14569,-0.145698 0.30106,-0.221872 0.50332,-0.21084 z m -8.10544,5.17e-4 h 1.58027 c 0.20284,0 0.34696,0.06254 0.48007,0.205155 l 0.006,0.0036 0.004,0.0062 c 0.14262,0.13311 0.20516,0.277742 0.20516,0.480591 v 0.353466 c 0,0.202844 -0.0635,0.358014 -0.20929,0.503846 -0.13189,0.131888 -0.28049,0.19327 -0.48627,0.19327 h -1.58027 z"
       sodipodi:nodetypes="ccssssscssscsssccccccsssscccccccccccccccscccsssccccscccsccsssccscccsssscc" />
    <path
       id="path88"
       style="font-size:10.5833px;line-height:1.25;font-family:'chol game font';-inkscape-font-specification:'chol game font';fill:#ffffff;fill-opacity:1;stroke:none;stroke-width:0.264583"
       d="m 22.261137,3.8178492 v 9.1911698 h 3.71296 c 0.77288,0 1.4517,-0.28383 1.99987,-0.831991 0.54815,-0.548163 0.82993,-1.226994 0.82993,-1.999878 V 9.8236842 c 0,-0.772884 -0.28178,-1.452232 -0.82993,-2.000395 -0.0742,-0.0742 -0.16138,-0.140002 -0.24804,-0.206706 0.11355,-0.317073 0.1974,-0.638476 0.1974,-0.966866 0,-0.772884 -0.28228,-1.453783 -0.83044,-2.001945 -0.54816,-0.548163 -1.22906,-0.829923 -2.00195,-0.829923 z m 10.23813,3.175 c -0.77288,0 -1.4517,0.281761 -1.99987,0.829923 -0.54815,0.548161 -0.82993,1.229061 -0.82993,2.001945 v 6.3593018 h 2.13269 v -1.941484 h 2.27531 v 1.941484 h 2.13476 V 9.8247172 c 0,-0.772884 -0.28177,-1.453783 -0.82993,-2.001945 -0.54817,-0.548162 -1.22699,-0.829923 -1.99987,-0.829923 z m 4.57854,-4.2333333 v 9.1911701 h 5.13251 V 9.8159327 h -2.99982 V 2.7595159 Z m 5.75986,2.1166666 v 9.1911695 h 5.1325 v -2.134753 h -2.99775 V 4.8761825 Z m -18.44384,1.0764197 h 0.69711 c 0.20285,0 0.34955,0.06202 0.48266,0.204639 l 0.004,0.0062 0.006,0.0036 c 0.14262,0.133111 0.20516,0.279809 0.20516,0.482658 0,0.202843 -0.065,0.358012 -0.21084,0.503845 -0.13189,0.131888 -0.28049,0.19327 -0.48628,0.19327 h -0.69763 z m 8.10544,3.175 h 5.2e-4 0.88264 c 0.20285,0 0.34696,0.06201 0.48007,0.204639 l 0.006,0.0062 0.004,0.0036 c 0.14262,0.133111 0.20516,0.279809 0.20516,0.482658 v 2.6365318 h -2.27583 V 9.8246992 c 0,-0.205794 0.0619,-0.354391 0.19379,-0.486275 0.14569,-0.145698 0.30106,-0.221872 0.50332,-0.21084 z m -8.10544,5.17e-4 h 1.58027 c 0.20284,0 0.34696,0.06254 0.48007,0.205155 l 0.006,0.0036 0.004,0.0062 c 0.14262,0.13311 0.20516,0.277742 0.20516,0.480591 v 0.3534658 c 0,0.202844 -0.0635,0.358014 -0.20929,0.503846 -0.13189,0.131888 -0.28049,0.19327 -0.48627,0.19327 h -1.58027 z"
       sodipodi:nodetypes="ccssssscssscsssccccccsssscccccccccccccccscccsssccccscccsccsssccscccsssscc" />
    <path
       style="-inkscape-font-specification:'chol game font';fill:#93b0c5;fill-opacity:1"
       d="m 22.723457,4.2815702 h 2.36719 c 0.66036,0 1.20709,0.224663 1.67578,0.693359 0.4688,0.4688 0.69336,1.013683 0.69336,1.673828 0,0.249573 -0.0655,0.520814 -0.16992,0.8125 l -0.11328,0.316407 0.26758,0.205078 c 0.089,0.06848 0.16036,0.125212 0.20312,0.167968 0.469,0.469011 0.69336,1.013484 0.69336,1.673829 v 0.3535148 c 0,0.660345 -0.22426,1.202762 -0.69336,1.671875 -0.46953,0.469524 -1.01431,0.695313 -1.67383,0.695313 h -3.25 z m 9.77552,3.175 h 0.88281 c 0.66035,0 1.20471,0.224246 1.67383,0.693359 0.4687,0.468699 0.69336,1.01348 0.69336,1.673828 v 5.8964848 h -1.20898 v -1.941407 h -3.20118 v 1.941407 h -1.20703 V 9.8237572 c 0,-0.660344 0.22663,-1.205129 0.69532,-1.673828 0.46912,-0.469113 1.01152,-0.693359 1.67187,-0.693359 z m 5.04115,-4.2333333 h 1.20703 v 7.0566401 h 3 v 1.207032 h -4.20703 z m 5.7599,2.1166666 h 1.20898 v 7.0566395 h 2.99805 v 1.207032 h -4.20703 z m -10.80105,3.3236977 c -0.3015,0.0012 -0.61693,0.134501 -0.83008,0.347656 -0.20363,0.203627 -0.33008,0.513859 -0.33008,0.8125 v 3.0996098 h 3.20118 V 9.8237572 c 0,-0.294506 -0.13483,-0.607395 -0.34766,-0.810547 -0.2015,-0.211903 -0.51624,-0.347656 -0.81055,-0.347656 h -0.85742 l -0.0137,-0.002 z m -8.56849,-3.173 v 2.31836 h 1.16211 c 0.29787,0 0.60844,-0.124069 0.8125,-0.328125 0.21333,-0.213313 0.34571,-0.530274 0.34571,-0.832032 0,-0.294506 -0.13483,-0.607395 -0.34766,-0.810547 -0.20353,-0.213212 -0.51877,-0.347656 -0.8125,-0.347656 z m 0,3.173828 v 2.6738278 h 2.04297 c 0.29786,0 0.6104,-0.126021 0.81446,-0.330078 0.21436,-0.21443 0.34375,-0.530602 0.34375,-0.830078 V 9.8245862 c 0,-0.294507 -0.13648,-0.60898 -0.34766,-0.810547 -0.20112,-0.211505 -0.51545,-0.34961 -0.81055,-0.34961 z m 2.76172,0.271485 0.0898,0.07422 c -0.001,-0.0014 -4.7e-4,-0.0045 -0.002,-0.0059 l 0.01,0.01172 c 5.8e-4,6.18e-4 0.001,0.0013 0.002,0.002 l 0.0605,0.07422 -0.0625,-0.09766 z"
       id="path89"
       sodipodi:nodetypes="cssssccsssssccssssccccccsssccccccccccccccsssccscsccsccssscscccsssscsccccccccc" />
    <path
       id="path91"
       style="-inkscape-font-specification:'chol game font';fill:#5d7789;fill-opacity:1"
       d="m 22.723587,4.2814272 v 0.428398 h 2.3673 c 0.66036,0 1.20666,0.224802 1.67535,0.693498 0.40863,0.408627 0.6316,0.875051 0.68213,1.425236 0.007,-0.06107 0.0114,-0.121147 0.0114,-0.179834 0,-0.660145 -0.2247,-1.205 -0.6935,-1.6738 -0.46869,-0.468696 -1.01499,-0.693498 -1.67535,-0.693498 z m 9.77563,3.175 c -0.66035,0 -1.20313,0.224385 -1.67225,0.693498 -0.46869,0.468699 -0.69505,1.013456 -0.69505,1.6738 v 0.4283968 c 0,-0.6603438 0.22636,-1.2050998 0.69505,-1.6737988 0.46912,-0.469113 1.0119,-0.693498 1.67225,-0.693498 h 0.88263 c 0.66035,0 1.20468,0.224385 1.6738,0.693498 0.4687,0.468699 0.6935,1.013451 0.6935,1.6737988 V 9.8237252 c 0,-0.660348 -0.2248,-1.205101 -0.6935,-1.6738 -0.46912,-0.469113 -1.01345,-0.693498 -1.6738,-0.693498 z m 5.04104,-4.2333333 v 0.428398 h 1.20665 v -0.428398 z m 5.75986,2.1166666 v 0.428398 h 1.20871 v -0.428398 z m -17.07235,1.5280727 c -0.0462,0.229392 -0.16052,0.450955 -0.32246,0.612882 -0.20406,0.204056 -0.515,0.328146 -0.81287,0.328146 h -1.1622 v 0.428397 h 1.1622 c 0.29787,0 0.60881,-0.124089 0.81287,-0.328145 0.21333,-0.213313 0.34572,-0.530233 0.34572,-0.831991 0,-0.06934 -0.009,-0.139581 -0.0233,-0.209289 z m 1.06867,1.001489 c -0.002,0.0068 -0.004,0.01331 -0.007,0.02015 l -0.11317,0.31626 0.26769,0.205155 c 0.089,0.06848 0.16032,0.125192 0.20308,0.167948 0.46001,0.460012 0.6835,0.993265 0.69195,1.6365928 1.7e-4,-0.01261 0.002,-0.02451 0.002,-0.03721 V 9.8247512 c 0,-0.660345 -0.2245,-1.204788 -0.6935,-1.673799 -0.0428,-0.04276 -0.11408,-0.09999 -0.20308,-0.168466 z m 4.04213,5.0539548 v 0.428398 h 3.20135 v -0.428398 z m -4.21111,-2.706295 c -0.0106,0.287785 -0.13436,0.58594 -0.33952,0.791167 -0.20406,0.204057 -0.51656,0.330212 -0.81442,0.330212 h -2.04328 v 0.427881 h 2.04328 c 0.29786,0 0.61036,-0.125639 0.81442,-0.329696 0.21436,-0.21443 0.34365,-0.530964 0.34365,-0.83044 v -0.353467 c 0,-0.01182 -0.004,-0.02378 -0.004,-0.03566 z m 11.61945,0.06305 v 0.427881 h 3.00033 v -0.427881 z m 5.76192,2.116666 v 0.427881 h 2.99826 v -0.427881 z"
       sodipodi:nodetypes="ccsscssscssscsssscsssscccccccccccssccssscccccscssscccccccccsccssssccccccccccccc" />
    <path
       id="path93"
       style="fill:#ffdf7b;fill-opacity:1;stroke-linecap:round;stroke-linejoin:round;stroke-dashoffset:7.8"
       d="m 6.402737,0.8169712 c -0.36592,-2.89e-4 -0.66255,0.296571 -0.66198,0.662492 v 9.1792848 1.883089 c -2.9e-4,0.365719 0.29626,0.662264 0.66198,0.661975 0.36511,-5.73e-4 0.66071,-0.296865 0.66042,-0.661975 v -1.883089 c 0,-0.562312 0.44124,-1.0035488 1.00356,-1.0035558 0.56233,0 1.00407,0.4412438 1.00407,1.0035558 v 6.558773 c -2.9e-4,0.365719 0.29626,0.662264 0.66198,0.661975 0.36572,2.83e-4 0.66226,-0.29626 0.66197,-0.661975 v -6.558773 c 0,-1.2772778 -1.05074,-2.3280228 -2.32802,-2.3280228 -0.35866,5e-6 -0.69908,0.08301 -1.00356,0.230477 v -7.081739 c 5.7e-4,-0.365312 -0.29511,-0.661919 -0.66042,-0.662492 z m 10.65826,1.652613 c -1.27729,-5e-6 -2.32595,1.050743 -2.32595,2.328023 v 5.7862098 l -0.34985,-0.05374 c -0.36136,-0.05527 -0.69904,0.19307 -0.75396,0.554488 -0.0553,0.360841 0.19214,0.698279 0.55293,0.753959 l 0.55088,0.08475 v 2.200383 c 0,0.56232 -0.44174,1.004075 -1.00408,1.004073 -0.24033,-10e-7 -0.45456,-0.08084 -0.62683,-0.218591 -0.28526,-0.228156 -0.70147,-0.181886 -0.92966,0.103352 -0.22816,0.285264 -0.18189,0.701468 0.10335,0.929659 0.39748,0.31784 0.90724,0.507978 1.45314,0.50798 1.27729,5e-6 2.32596,-1.049192 2.32596,-2.326473 v -1.997294 l 2.00814,0.309025 v 3.534151 c 0,1.277281 1.04867,2.328027 2.32596,2.328023 1.27727,-7e-6 2.32802,-1.050744 2.32802,-2.328023 -5.7e-4,-0.36511 -0.29686,-0.660708 -0.66197,-0.660425 -0.36511,-2.88e-4 -0.66141,0.295311 -0.66198,0.660425 0,0.562316 -0.44176,1.00562 -1.00407,1.005623 -0.56234,2e-6 -1.00407,-0.443303 -1.00407,-1.005623 v -3.331063 l 0.8692,0.133842 c 0.36084,0.05532 0.69827,-0.192153 0.75395,-0.552938 0.0553,-0.36067 -0.19184,-0.698029 -0.55242,-0.753959 l -1.07073,-0.164848 V 9.1063922 c -5.7e-4,-0.364306 -0.2956,-0.659573 -0.65991,-0.660425 -0.36511,-2.88e-4 -0.66141,0.295311 -0.66198,0.660425 v 1.9905758 l -2.00814,-0.309542 V 4.7976112 c 0,-0.562331 0.44174,-1.004074 1.00407,-1.004073 0.56232,3e-6 1.00407,0.441749 1.00407,1.004073 8.6e-4,0.364911 0.29707,0.660197 0.66198,0.659908 0.3641,-8.51e-4 0.65906,-0.295804 0.65991,-0.659908 0,-1.277276 -1.04868,-2.328016 -2.32596,-2.328023 z m -4.99659,1.313632 c -0.43836,-1e-6 -0.79374,0.355366 -0.79374,0.793733 0,0.438367 0.35538,0.793734 0.79374,0.793733 0.43836,1e-6 0.79374,-0.355366 0.79374,-0.793733 0,-0.438367 -0.35538,-0.793734 -0.79374,-0.793733 z m -9.52397,1.611771 c -0.82634,-0.0088 -1.61931,0.425458 -2.04587,1.16427 -0.57185,0.990474 -0.22892,2.135826 0.41806,2.861324 0.73665,0.8260168 1.47201,1.6523858 2.20865,2.4784008 0.29448,0.330213 0.43981,1.005192 0.25787,1.320333 -0.22881,0.396304 -0.68659,0.587144 -1.12861,0.468705 -0.44202,-0.11844 -0.74414,-0.512874 -0.74414,-0.970483 -5.7e-4,-0.364509 -0.29592,-0.659859 -0.66043,-0.660425 -0.36511,-2.83e-4 -0.6614,0.295315 -0.66197,0.660425 0,1.049974 0.71024,1.976171 1.72444,2.247925 1.0142,0.271759 2.09242,-0.174352 2.61741,-1.083655 0.57184,-0.990469 0.231,-2.13789 -0.416,-2.863391 -0.73664,-0.826019 -1.47406,-1.6508338 -2.21071,-2.4768508 -0.29448,-0.330217 -0.43982,-1.006748 -0.25787,-1.321884 0.22881,-0.396306 0.6866,-0.585595 1.12861,-0.467155 0.44202,0.118439 0.74414,0.511324 0.74414,0.968934 -2.9e-4,0.365719 0.29626,0.662264 0.66198,0.661975 0.36592,5.71e-4 0.66278,-0.296057 0.66249,-0.661975 0,-1.049975 -0.71076,-1.97617 -1.72496,-2.247925 -0.19016,-0.05095 -0.3824,-0.07652 -0.57309,-0.07855 z m 9.52448,1.509985 c -0.36572,-2.83e-4 -0.66226,0.29626 -0.66197,0.661975 v 4.3304848 c -2.9e-4,0.365715 0.29625,0.662258 0.66197,0.661975 0.36572,2.89e-4 0.66227,-0.296256 0.66198,-0.661975 V 7.5669472 c 2.9e-4,-0.365719 -0.29626,-0.662264 -0.66198,-0.661975 z"
       sodipodi:nodetypes="ccccccssscccsscccsscccccsssscssccsscccssccccccccccsscccssssssscsssscccsssssscccssccccccccc" />
    <circle
       style="fill:#ffdf7b;fill-opacity:1;stroke-width:0.649451;stroke-linecap:round;stroke-linejoin:round;stroke-dashoffset:7.8"
       id="circle22"
       cx="32.397335"
       cy="2.9391384"
       r="2.715868" />
  </g>
</svg>
