<?xml version="1.0" encoding="UTF-8" standalone="no"?>
<!-- Created with Inkscape (http://www.inkscape.org/) -->

<svg
   width="420"
   height="265"
   viewBox="0 0 111.125 70.114583"
   version="1.1"
   id="svg1"
   inkscape:version="1.4 (e7c3feb100, 2024-10-09)"
   sodipodi:docname="out_of_balls.svg"
   xmlns:inkscape="http://www.inkscape.org/namespaces/inkscape"
   xmlns:sodipodi="http://sodipodi.sourceforge.net/DTD/sodipodi-0.dtd"
   xmlns="http://www.w3.org/2000/svg"
   xmlns:svg="http://www.w3.org/2000/svg">
  <sodipodi:namedview
     id="namedview1"
     pagecolor="#ffffff"
     bordercolor="#666666"
     borderopacity="1.0"
     inkscape:showpageshadow="2"
     inkscape:pageopacity="0.0"
     inkscape:pagecheckerboard="0"
     inkscape:deskcolor="#d1d1d1"
     inkscape:document-units="px"
     inkscape:zoom="1.435846"
     inkscape:cx="200.92684"
     inkscape:cy="119.09355"
     inkscape:window-width="1920"
     inkscape:window-height="973"
     inkscape:window-x="0"
     inkscape:window-y="32"
     inkscape:window-maximized="1"
     inkscape:current-layer="layer1" />
  <defs
     id="defs1" />
  <g
     inkscape:label="Layer 1"
     inkscape:groupmode="layer"
     id="layer1">
    <path
       id="path131"
       style="font-style:normal;font-variant:normal;font-weight:normal;font-stretch:normal;font-size:94.5626px;line-height:1.25;font-family:'chol game font';-inkscape-font-specification:'chol game font';fill:#314655;fill-opacity:1;stroke-width:0.679095"
       d="m 8.0257243,4.542459 c -2.024115,0 -3.820557,0.745456 -5.255921,2.180794 -1.435312,1.435338 -2.18133101,3.232221 -2.18133101,5.256464 v 9.054758 c 0,2.024237 0.74607201,3.820628 2.18133101,5.255903 1.435311,1.435269 3.231673,2.181355 5.255921,2.181355 h 2.2638277 c 2.024248,0 3.820636,-0.746083 5.255895,-2.181355 1.435285,-1.435275 2.181357,-3.231666 2.181357,-5.255903 v -9.054758 c 0,-2.024243 -0.745993,-3.821126 -2.181357,-5.256464 C 14.110135,5.287909 12.313641,4.542459 10.289552,4.542459 Z m 12.9355317,0 v 16.492016 c 0,2.024232 0.746072,3.820626 2.181331,5.255903 1.435285,1.435269 3.231673,2.181355 5.255921,2.181355 h 2.263802 c 2.024274,0 3.821138,-0.746025 5.256503,-2.181355 1.435285,-1.435338 2.180775,-3.231793 2.180775,-5.255903 V 4.542459 H 32.27984 v 16.492016 c 0,0.479703 -0.144172,0.826395 -0.490353,1.172591 -0.308213,0.308205 -0.636666,0.444352 -1.127177,0.444352 h -2.263802 c -0.481806,0 -0.832776,-0.139303 -1.169802,-0.447156 C 26.920863,21.867238 26.78156,21.516268 26.78156,21.034475 V 4.542459 Z m 20.372758,0 v 5.819754 h 5.659305 v 18.10952 h 5.819775 v -18.10952 h 5.659278 V 4.542459 Z m 41.39192,0 c -2.02409,0 -3.82053,0.745456 -5.255896,2.180794 -1.435339,1.435341 -2.181358,3.232229 -2.181358,5.256464 v 9.054758 c 0,2.024232 0.746072,3.820626 2.181358,5.255903 1.435286,1.435269 3.231676,2.181355 5.255896,2.181355 h 2.26383 c 2.02427,0 3.82111,-0.746025 5.25647,-2.181355 1.43532,-1.435338 2.18081,-3.231793 2.18081,-5.255903 v -9.054758 c 0,-2.024118 -0.74544,-3.821065 -2.18081,-5.256464 -1.43541,-1.435402 -3.23233,-2.180794 -5.25647,-2.180794 z m 12.93553,0 v 23.929274 h 5.820336 v -7.696462 h 6.79093 v -4.914784 h -6.79093 v -5.498274 h 9.05473 V 4.542459 Z M 8.0257243,10.362213 h 2.2638277 c 0.479663,0 0.799253,0.139028 1.111991,0.474086 l 0.01508,0.01627 0.01614,0.01513 c 0.335068,0.312724 0.47408,0.632293 0.47408,1.111998 v 9.054759 c 0,0.479703 -0.144171,0.826394 -0.490326,1.172591 -0.308239,0.308205 -0.63672,0.444352 -1.127151,0.444352 H 8.0255383 c -0.48178,0 -0.832803,-0.139311 -1.169802,-0.447157 -0.30787,-0.337023 -0.447146,-0.687993 -0.447146,-1.169786 v -9.054759 c 0,-0.490466 0.136128,-0.818943 0.444367,-1.127146 0.346155,-0.346183 0.692891,-0.490357 1.172581,-0.490357 z m 74.7002097,0 h 2.26383 c 0.47971,0 0.79928,0.139028 1.11199,0.474086 l 0.0151,0.01627 0.0161,0.01513 c 0.33504,0.312724 0.47408,0.632293 0.47408,1.111998 v 9.054759 c 0,0.479703 -0.14417,0.826394 -0.49035,1.172591 -0.30822,0.308205 -0.63667,0.444352 -1.12716,0.444352 h -2.26382 c -0.48181,0 -0.83278,-0.139303 -1.16978,-0.447157 -0.30787,-0.337023 -0.44714,-0.687993 -0.44714,-1.169786 v -9.054759 c 0,-0.490466 0.13612,-0.818943 0.44434,-1.127146 0.34618,-0.346194 0.69286,-0.490357 1.17258,-0.490357 z M 1.7397273,40.18081 V 69.27622 H 13.50715 c 2.451285,0 4.613195,-0.89738 6.35164,-2.63581 1.738445,-1.73843 2.635806,-3.90036 2.635806,-6.35163 v -1.11199 c 0,-2.45127 -0.897414,-4.61269 -2.635806,-6.35107 -0.214471,-0.21446 -0.470561,-0.40345 -0.717603,-0.59808 0.356923,-1.00164 0.57285,-2.02238 0.57285,-3.05996 0,-2.451157 -0.896806,-4.612633 -2.63525,-6.351062 -1.738392,-1.738426 -3.900356,-2.635808 -6.351614,-2.635808 z m 33.2656907,0 c -2.451258,0 -4.612692,0.897435 -6.351084,2.635808 -1.738366,1.738373 -2.635806,3.899797 -2.635806,6.351062 v 20.10854 h 6.853238 v -6.11655 h 7.047865 v 6.11655 h 6.85321 V 49.16768 c 0,-2.45126 -0.89744,-4.612686 -2.635832,-6.351062 C 42.398697,41.078245 40.23721,40.18081 37.785978,40.18081 Z m 16.035338,0 V 69.27622 H 66.142458 V 62.42301 H 57.89394 v -22.2422 z m 18.795074,0 v 29.09541 h 15.676274 v -6.85321 h -8.823037 v -22.2422 z m 27.782014,0 c -2.45123,0 -4.61322,0.897379 -6.35161,2.635808 -1.73845,1.738429 -2.63528,3.899905 -2.63528,6.351062 0,2.45116 0.89678,4.61315 2.63528,6.35163 1.73839,1.73844 3.90038,2.63581 6.35161,2.63581 h 2.780556 c 0.62448,0 1.06414,0.19052 1.47332,0.62893 l 0.0151,0.0163 0.0161,0.0152 c 0.43841,0.40917 0.62891,0.84882 0.62891,1.47331 0,0.62448 -0.19574,1.09511 -0.64518,1.54456 -0.40497,0.40495 -0.85376,0.58967 -1.48848,0.58967 h -2.780556 c -0.62616,0 -1.10075,-0.18773 -1.54175,-0.59247 -0.4046,-0.44088 -0.59188,-0.91526 -0.59193,-1.54176 v -0.64633 h -6.85321 v 0.64633 c 0,2.45116 0.89678,4.61314 2.63528,6.35163 1.73839,1.73842 3.90038,2.6358 6.35161,2.6358 h 2.780556 c 2.45127,0 4.6127,-0.89743 6.35107,-2.6358 1.73844,-1.73844 2.6358,-3.90037 2.6358,-6.35163 0,-2.45126 -0.89738,-4.61269 -2.6358,-6.35107 -1.73837,-1.73837 -3.8998,-2.63581 -6.35107,-2.63581 h -2.780556 c -0.62616,0 -1.10075,-0.18772 -1.54175,-0.59246 -0.4046,-0.44088 -0.59188,-0.91526 -0.59193,-1.54176 0,-0.63502 0.18434,-1.083686 0.5891,-1.488464 0.44944,-0.449447 0.92011,-0.645205 1.54458,-0.645205 h 2.780556 c 0.62448,0 1.06414,0.190527 1.47332,0.628933 l 0.0151,0.01627 0.0169,0.01516 c 0.43841,0.409175 0.62894,0.848826 0.62894,1.473316 v 0.64633 h 6.85321 v -0.64633 c 0,-2.451266 -0.89744,-4.612693 -2.63583,-6.351069 -1.73837,-1.738368 -3.89983,-2.635808 -6.35107,-2.635808 z M 8.5929383,47.034018 h 2.1342347 c 0.624443,0 1.064789,0.190675 1.473861,0.628933 l 0.01508,0.01627 0.01614,0.01516 c 0.438256,0.409032 0.628385,0.848529 0.628385,1.473319 0,0.62479 -0.195341,1.09526 -0.64463,1.54456 -0.404839,0.4048 -0.85434,0.58966 -1.489022,0.58966 H 8.5927523 Z m 26.4124797,0 h 2.78056 c 0.624469,0 1.064154,0.190545 1.473305,0.628933 l 0.01508,0.01627 0.0164,0.01516 c 0.438414,0.409175 0.628914,0.848829 0.628914,1.473319 v 8.25077 H 32.871813 V 49.1677 c 0,-0.63505 0.184282,-1.083704 0.589068,-1.488467 0.449448,-0.449447 0.920115,-0.645205 1.544584,-0.645205 z M 8.5929383,57.04312 H 13.50715 c 0.624787,0 1.065001,0.1903 1.473888,0.62838 l 0.01508,0.0163 0.0164,0.0151 c 0.438229,0.40903 0.628915,0.8494 0.628915,1.47388 v 1.11199 c 0,0.62447 -0.195739,1.09511 -0.645213,1.54457 -0.404786,0.40478 -0.85434,0.58966 -1.489022,0.58966 H 8.5929863 Z" />
    <path
       id="text129"
       style="font-style:normal;font-variant:normal;font-weight:normal;font-stretch:normal;font-size:94.5626px;line-height:1.25;font-family:'chol game font';-inkscape-font-specification:'chol game font';fill:#f99bad;fill-opacity:1;stroke-width:0.679095"
       d="m 8.0257243,0.83829298 c -2.024115,0 -3.820557,0.74545502 -5.255921,2.18079302 C 1.3344913,4.454424 0.58847229,6.251308 0.58847229,8.27555 v 9.054759 c 0,2.024237 0.74607201,3.820628 2.18133101,5.255902 1.435311,1.43527 3.231673,2.181355 5.255921,2.181355 h 2.2638277 c 2.024248,0 3.820636,-0.746083 5.255895,-2.181355 1.435285,-1.435274 2.181357,-3.231665 2.181357,-5.255902 V 8.27555 c 0,-2.024242 -0.745993,-3.821126 -2.181357,-5.256464 C 14.110135,1.583743 12.313641,0.83829298 10.289552,0.83829298 Z m 12.9355317,0 V 17.330309 c 0,2.024231 0.746072,3.820625 2.181331,5.255902 1.435285,1.43527 3.231673,2.181355 5.255921,2.181355 h 2.263802 c 2.024274,0 3.821138,-0.746024 5.256503,-2.181355 1.435285,-1.435338 2.180775,-3.231792 2.180775,-5.255902 V 0.83829298 H 32.27984 V 17.330309 c 0,0.479702 -0.144172,0.826394 -0.490353,1.172591 -0.308213,0.308205 -0.636666,0.444351 -1.127177,0.444351 h -2.263802 c -0.481806,0 -0.832776,-0.139303 -1.169802,-0.447156 C 26.920863,18.163071 26.78156,17.812102 26.78156,17.330309 V 0.83829298 Z m 20.372758,0 V 6.658046 h 5.659305 v 18.10952 h 5.819775 V 6.658046 h 5.659278 V 0.83829298 Z m 41.39192,0 c -2.02409,0 -3.82053,0.74545502 -5.255896,2.18079302 -1.435339,1.435341 -2.181358,3.23223 -2.181358,5.256464 v 9.054759 c 0,2.024231 0.746072,3.820625 2.181358,5.255902 1.435286,1.43527 3.231676,2.181355 5.255896,2.181355 h 2.26383 c 2.02427,0 3.82111,-0.746024 5.25647,-2.181355 1.43532,-1.435338 2.18081,-3.231792 2.18081,-5.255902 V 8.27555 c 0,-2.024118 -0.74544,-3.821065 -2.18081,-5.256464 -1.43541,-1.435401 -3.23233,-2.18079302 -5.25647,-2.18079302 z m 12.93553,0 V 24.767566 h 5.820336 v -7.696462 h 6.79093 V 12.156321 H 101.4818 V 6.658046 h 9.05473 V 0.83829298 Z M 8.0257243,6.658046 h 2.2638277 c 0.479663,0 0.799253,0.139028 1.111991,0.474086 l 0.01508,0.01627 0.01614,0.01513 c 0.335068,0.312724 0.47408,0.632293 0.47408,1.111999 v 9.054758 c 0,0.479703 -0.144171,0.826395 -0.490326,1.172591 -0.308239,0.308206 -0.63672,0.444352 -1.127151,0.444352 H 8.0255383 c -0.48178,0 -0.832803,-0.139311 -1.169802,-0.447156 -0.30787,-0.337024 -0.447146,-0.687994 -0.447146,-1.169787 V 8.275531 c 0,-0.490466 0.136128,-0.818944 0.444367,-1.127146 0.346155,-0.346184 0.692891,-0.490358 1.172581,-0.490358 z m 74.7002097,0 h 2.26383 c 0.47971,0 0.79928,0.139028 1.11199,0.474086 l 0.0151,0.01627 0.0161,0.01513 c 0.33504,0.312724 0.47408,0.632293 0.47408,1.111999 v 9.054758 c 0,0.479703 -0.14417,0.826395 -0.49035,1.172591 -0.30822,0.308206 -0.63667,0.444352 -1.12716,0.444352 h -2.26382 c -0.48181,0 -0.83278,-0.139303 -1.16978,-0.447156 -0.30787,-0.337024 -0.44714,-0.687994 -0.44714,-1.169787 V 8.275531 c 0,-0.490466 0.13612,-0.818944 0.44434,-1.127146 0.34618,-0.346194 0.69286,-0.490358 1.17258,-0.490358 z M 1.7397273,36.476643 V 65.57205 H 13.50715 c 2.451285,0 4.613195,-0.89738 6.35164,-2.6358 1.738445,-1.73844 2.635806,-3.90037 2.635806,-6.35163 v -1.112 c 0,-2.45126 -0.897414,-4.61269 -2.635806,-6.35107 -0.214471,-0.21446 -0.470561,-0.40345 -0.717603,-0.59808 0.356923,-1.001637 0.57285,-2.022378 0.57285,-3.059952 0,-2.451161 -0.896806,-4.612638 -2.63525,-6.351067 -1.738392,-1.738426 -3.900356,-2.635808 -6.351614,-2.635808 z m 33.2656907,0 c -2.451258,0 -4.612692,0.897435 -6.351084,2.635808 -1.738366,1.738374 -2.635806,3.899797 -2.635806,6.351067 V 65.57205 h 6.853238 V 59.4555 h 7.047865 v 6.11655 h 6.85321 V 45.463518 c 0,-2.451264 -0.89744,-4.612691 -2.635832,-6.351067 -1.738312,-1.738373 -3.899799,-2.635808 -6.351031,-2.635808 z m 16.035338,0 V 65.57205 h 15.101702 v -6.8532 H 57.89394 V 36.476643 Z m 18.795074,0 V 65.57205 h 15.676274 v -6.8532 H 76.689067 V 36.476643 Z m 27.782014,0 c -2.45123,0 -4.61322,0.89738 -6.35161,2.635808 -1.73845,1.738429 -2.63528,3.899906 -2.63528,6.351067 0,2.451158 0.89678,4.613152 2.63528,6.351622 1.73839,1.73844 3.90038,2.63581 6.35161,2.63581 h 2.780556 c 0.62448,0 1.06414,0.19052 1.47332,0.62894 l 0.0151,0.0163 0.0161,0.0152 c 0.43841,0.40917 0.62891,0.84883 0.62891,1.47331 0,0.62449 -0.19574,1.09512 -0.64518,1.54457 -0.40497,0.40494 -0.85376,0.58966 -1.48848,0.58966 h -2.780556 c -0.62616,0 -1.10075,-0.18773 -1.54175,-0.59247 -0.4046,-0.44088 -0.59188,-0.91526 -0.59193,-1.54176 v -0.64633 h -6.85321 v 0.64633 c 0,2.45117 0.89678,4.61314 2.63528,6.35163 1.73839,1.73843 3.90038,2.6358 6.35161,2.6358 h 2.780556 c 2.45127,0 4.6127,-0.89742 6.35107,-2.6358 1.73844,-1.73843 2.6358,-3.90036 2.6358,-6.35163 0,-2.45126 -0.89738,-4.61269 -2.6358,-6.35107 -1.73837,-1.73837 -3.8998,-2.635802 -6.35107,-2.635802 h -2.780556 c -0.62616,0 -1.10075,-0.187725 -1.54175,-0.592466 -0.4046,-0.44088 -0.59188,-0.915257 -0.59193,-1.541761 0,-0.635013 0.18434,-1.083683 0.5891,-1.488461 0.44944,-0.449448 0.92011,-0.645205 1.54458,-0.645205 h 2.780556 c 0.62448,0 1.06414,0.190526 1.47332,0.628933 l 0.0151,0.01627 0.0169,0.01516 c 0.43841,0.409176 0.62894,0.848826 0.62894,1.473314 v 0.646327 h 6.85321 v -0.646327 c 0,-2.451264 -0.89744,-4.61269 -2.63583,-6.351066 -1.73837,-1.738368 -3.89983,-2.635808 -6.35107,-2.635808 z M 8.5929383,43.329851 h 2.1342347 c 0.624443,0 1.064789,0.190675 1.473861,0.628934 l 0.01508,0.01627 0.01614,0.01516 c 0.438256,0.409033 0.628385,0.848524 0.628385,1.473314 0,0.62479 -0.195341,1.095261 -0.64463,1.544563 -0.404839,0.404799 -0.85434,0.589664 -1.489022,0.589664 H 8.5927523 Z m 26.4124797,0 h 2.78056 c 0.624469,0 1.064154,0.190545 1.473305,0.628934 l 0.01508,0.01627 0.0164,0.01516 c 0.438414,0.409176 0.628914,0.848826 0.628914,1.473314 v 8.250781 h -7.047864 v -8.250781 c 0,-0.635045 0.184282,-1.083699 0.589068,-1.488461 0.449448,-0.449448 0.920115,-0.645205 1.544584,-0.645205 z M 8.5929383,53.33895 H 13.50715 c 0.624787,0 1.065001,0.1903 1.473888,0.62838 l 0.01508,0.0163 0.0164,0.0151 c 0.438229,0.40902 0.628915,0.8494 0.628915,1.47387 v 1.112 c 0,0.62447 -0.195739,1.0951 -0.645213,1.54456 -0.404786,0.40478 -0.85434,0.58967 -1.489022,0.58967 H 8.5929863 Z" />
  </g>
</svg>
