<?xml version="1.0" encoding="UTF-8" standalone="no"?>
<!-- Created with Inkscape (http://www.inkscape.org/) -->

<svg
   width="400"
   height="200"
   viewBox="0 0 105.83333 52.916666"
   version="1.1"
   id="svg4524"
   sodipodi:docname="stars.svg"
   inkscape:version="1.2.2 (b0a8486541, 2022-12-01)"
   xmlns:inkscape="http://www.inkscape.org/namespaces/inkscape"
   xmlns:sodipodi="http://sodipodi.sourceforge.net/DTD/sodipodi-0.dtd"
   xmlns="http://www.w3.org/2000/svg"
   xmlns:svg="http://www.w3.org/2000/svg">
  <sodipodi:namedview
     id="namedview4526"
     pagecolor="#505050"
     bordercolor="#eeeeee"
     borderopacity="1"
     inkscape:showpageshadow="0"
     inkscape:pageopacity="0"
     inkscape:pagecheckerboard="0"
     inkscape:deskcolor="#d1d1d1"
     inkscape:document-units="px"
     showgrid="false"
     inkscape:zoom="1.144025"
     inkscape:cx="-3.9334804"
     inkscape:cy="186.18474"
     inkscape:window-width="1920"
     inkscape:window-height="1019"
     inkscape:window-x="0"
     inkscape:window-y="27"
     inkscape:window-maximized="1"
     inkscape:current-layer="layer1" />
  <defs
     id="defs4521" />
  <g
     inkscape:label="Layer 1"
     inkscape:groupmode="layer"
     id="layer1">
    <path
       id="rect5483"
       style="fill:#5d7789;fill-opacity:1;stroke:none;stroke-width:2.6;stroke-linejoin:round;stroke-dasharray:none;stroke-dashoffset:7.8;stroke-opacity:1"
       d="M -1.3229145,-1.3229162 V 54.239582 H 107.15625 V -1.3229162 Z M 52.91615,1.4841468 c 0.686329,-6.26e-5 1.299309,0.4004604 1.574064,1.0293945 l 4.310331,9.8732997 c 0.187992,0.432337 0.595378,0.72879 1.064534,0.775146 l 10.722861,1.046965 c 0.796527,0.07816 1.263555,0.559643 1.465027,1.179772 0.201472,0.62013 0.106021,1.282977 -0.492477,1.81436 l -8.058422,7.148401 c -0.353666,0.312835 -0.509963,0.793103 -0.408244,1.254187 l 2.318205,10.519254 c 0.14761,0.670319 -0.112422,1.356064 -0.66766,1.759582 -0.555298,0.403491 -1.286983,0.439444 -1.878955,0.09198 l -9.291422,-5.45496 c -0.406377,-0.238562 -0.909822,-0.238562 -1.316199,0 l -9.290906,5.454964 c -0.689769,0.403851 -1.351861,0.29103 -1.878955,-0.09198 -0.527578,-0.383362 -0.840261,-0.97567 -0.668176,-1.757515 l 2.318722,-10.521321 c 0.10096,-0.460461 -0.05527,-0.939666 -0.408244,-1.25212 l -8.056873,-7.150468 c -0.598222,-0.53138 -0.695476,-1.194348 -0.494026,-1.81436 0.201273,-0.619468 0.669992,-1.100857 1.465027,-1.179772 l 10.722342,-1.046965 c 0.469883,-0.04568 0.878276,-0.342239 1.066602,-0.775146 L 51.341569,2.5135413 C 51.616322,1.8846124 52.229825,1.4840904 52.91615,1.4841468 Z M 14.72055,21.798669 c 0.345156,-3.1e-5 0.650913,0.199444 0.789099,0.515731 l 3.08405,7.064685 c 0.187992,0.432338 0.595377,0.72879 1.064533,0.775146 l 7.67395,0.749825 c 0.424101,0.0415 0.629088,0.272628 0.732255,0.590145 0.103167,0.317516 0.07273,0.625105 -0.24598,0.907955 l -5.767606,5.11545 c -0.352258,0.31288 -0.507608,0.79202 -0.406177,1.25212 l 1.658297,7.529256 c 0.07426,0.337177 -0.05502,0.677637 -0.334347,0.880566 -0.279226,0.202806 -0.643384,0.219619 -0.941027,0.04496 L 15.378908,43.32242 c -0.406377,-0.238562 -0.909822,-0.238562 -1.316199,0 L 7.4140193,47.226574 C 7.046475,47.442336 6.7446543,47.375824 6.4745418,47.179548 6.2044292,46.983273 6.0490333,46.715199 6.140712,46.298982 L 7.7990087,38.769726 C 7.8999683,38.309265 7.7437357,37.83006 7.3907649,37.517606 l -5.7655394,-5.117 C 1.308524,32.118237 1.2757873,31.808921 1.3787289,31.492134 c 0.103148,-0.31742 0.3088653,-0.54804 0.7327718,-0.589628 v 0.0021 l 7.6734328,-0.750342 c 0.4691575,-0.04636 0.8765435,-0.342808 1.0645355,-0.775146 L 13.933518,22.3144 c 0.138187,-0.31629 0.441873,-0.515766 0.787032,-0.515731 z m 76.390685,0 c 0.345158,-3.5e-5 0.648845,0.199441 0.787032,0.515731 l 3.084048,7.064685 c 0.188327,0.432908 0.596719,0.729466 1.066603,0.775146 l 7.671892,0.749825 c 0.4241,0.0415 0.63115,0.272629 0.73432,0.590145 0.10316,0.317516 0.0727,0.625107 -0.24598,0.907955 l -5.767615,5.11545 c -0.35297,0.312454 -0.509203,0.791659 -0.408244,1.25212 l 1.658294,7.529256 c 0.0743,0.33718 -0.055,0.67764 -0.33434,0.880566 -0.27923,0.202806 -0.64184,0.219619 -0.939481,0.04496 l -6.648173,-3.902089 c -0.406376,-0.238562 -0.910339,-0.238562 -1.316715,0 l -6.648173,3.904155 c -0.367543,0.21576 -0.669366,0.149244 -0.939478,-0.04703 -0.270111,-0.196274 -0.427574,-0.46435 -0.335896,-0.880566 l 1.660363,-7.529256 c 0.100961,-0.460462 -0.05527,-0.939665 -0.408243,-1.25212 l -5.766057,-5.117 c -0.316705,-0.282373 -0.350991,-0.591684 -0.248047,-0.908472 0.103151,-0.317421 0.310929,-0.548045 0.734839,-0.589628 v 0.0021 l 7.671883,-0.750342 c 0.469883,-0.04568 0.877759,-0.342238 1.066085,-0.775146 L 90.324201,22.3144 c 0.138187,-0.316291 0.441872,-0.515767 0.787034,-0.515731 z"
       sodipodi:nodetypes="ccccccccccscccccccccsccccsccccccccccscccccccccsccccscccccccccccscccccccccsccccscccccc" />
    <path
       id="path2504"
       style="color:#000000;fill:#314655;fill-opacity:1;stroke-width:6.35;stroke-linejoin:round;stroke-dashoffset:7.8;-inkscape-stroke:none"
       d="m 33.220195,17.95756 a 3.0178398,3.0178398 0 0 0 0.189136,4.306197 l 7.305497,6.482291 0.753442,-3.420463 -8.058939,-7.150467 A 3.0178398,3.0178398 0 0 1 33.220195,17.95756 Z m 39.405863,0.0057 a 3.0178398,3.0178398 0 0 1 -0.203088,0.21239 l -8.058939,7.149435 0.753442,3.420463 7.305497,-6.481258 a 3.0178398,3.0178398 0 0 0 0.203088,-4.30103 z M 52.91615,33.642907 43.625761,39.098388 a 3.0178398,3.0178398 0 0 1 -4.07262,-0.987537 l -0.402042,1.824695 a 3.0178398,3.0178398 0 0 0 4.474662,3.251481 l 9.290389,-5.455481 9.290389,5.454964 a 3.0178398,3.0178398 0 0 0 3.301607,-0.16123 3.0178398,3.0178398 0 0 0 1.173055,-3.090251 l -0.401009,-1.821077 a 3.0178398,3.0178398 0 0 1 -0.772046,0.822689 3.0178398,3.0178398 0 0 1 -3.301607,0.16123 z M 1.3275692,33.875451 a 2.1596258,2.1596258 0 0 0 -0.5658569,3.586861 l 5.0136473,4.448824 0.7534424,-3.420463 z m 76.3901668,0 a 2.1596258,2.1596258 0 0 0 -0.565856,3.586861 l 5.013648,4.448824 0.753442,-3.420463 z m -49.605756,0.0036 -5.198649,4.611605 0.753442,3.420463 5.014164,-4.448307 A 2.1596258,2.1596258 0 0 0 28.11198,33.879051 Z m 76.39018,0 -5.198665,4.611605 0.753455,3.420463 5.01416,-4.448307 a 2.1596258,2.1596258 0 0 0 -0.56895,-3.583761 z M 14.721066,44.442764 8.0728938,48.346919 A 2.1596258,2.1596258 0 0 1 5.3603979,47.884931 l -0.4898926,2.223637 a 2.1596258,2.1596258 0 0 0 3.2023885,2.32699 l 6.6481732,-3.904154 6.64869,3.903637 a 2.1596258,2.1596258 0 0 0 2.362129,-0.115238 2.1596258,2.1596258 0 0 0 0.839742,-2.211752 l -0.484725,-2.201416 a 2.1596258,2.1596258 0 0 1 -0.355017,0.324528 2.1596258,2.1596258 0 0 1 -2.362129,0.115239 z m 76.390169,0 -6.648173,3.904155 a 2.1596258,2.1596258 0 0 1 -2.712496,-0.461988 l -0.489893,2.223637 a 2.1596258,2.1596258 0 0 0 3.202389,2.32699 l 6.648173,-3.904154 6.648689,3.903637 a 2.1596258,2.1596258 0 0 0 2.362136,-0.115238 2.1596258,2.1596258 0 0 0 0.83974,-2.211752 l -0.48472,-2.201416 a 2.1596258,2.1596258 0 0 1 -0.35502,0.324528 2.1596258,2.1596258 0 0 1 -2.362136,0.115239 z" />
  </g>
</svg>
