<?xml version="1.0" encoding="UTF-8" standalone="no"?>
<!-- Created with Inkscape (http://www.inkscape.org/) -->

<svg
   width="575"
   height="192"
   viewBox="0 0 152.13541 50.800001"
   version="1.1"
   id="svg1"
   inkscape:version="1.4 (e7c3feb100, 2024-10-09)"
   sodipodi:docname="trapped.svg"
   xmlns:inkscape="http://www.inkscape.org/namespaces/inkscape"
   xmlns:sodipodi="http://sodipodi.sourceforge.net/DTD/sodipodi-0.dtd"
   xmlns="http://www.w3.org/2000/svg"
   xmlns:svg="http://www.w3.org/2000/svg">
  <sodipodi:namedview
     id="namedview1"
     pagecolor="#9c9c9c"
     bordercolor="#666666"
     borderopacity="1.0"
     inkscape:showpageshadow="2"
     inkscape:pageopacity="0.0"
     inkscape:pagecheckerboard="0"
     inkscape:deskcolor="#d1d1d1"
     inkscape:document-units="px"
     inkscape:zoom="1.3031494"
     inkscape:cx="262.05745"
     inkscape:cy="73.667687"
     inkscape:window-width="1920"
     inkscape:window-height="973"
     inkscape:window-x="0"
     inkscape:window-y="32"
     inkscape:window-maximized="1"
     inkscape:current-layer="layer1" />
  <defs
     id="defs1" />
  <g
     inkscape:label="Layer 1"
     inkscape:groupmode="layer"
     id="layer1">
    <rect
       style="fill:#5d7789;fill-opacity:1;stroke:none;stroke-width:6.30281;stroke-linecap:round;stroke-linejoin:round;stroke-dasharray:none;stroke-dashoffset:7.8;stroke-opacity:1"
       id="rect151"
       width="152.13542"
       height="47.095833"
       x="-3.4611003e-06"
       y="1.8520833"
       ry="0" />
    <path
       id="text79"
       style="-inkscape-font-specification:'chol game font';fill:#314655;fill-opacity:1;stroke-width:0.264583"
       d="m 10.596761,16.462562 v 6.326746 h 5.262721 v 16.839797 h 6.326769 V 22.789308 h 5.262192 v -6.326746 z m 18.945092,0 v 23.166543 h 6.326743 v -6.31486 h 3.15124 c 0.1279,0 0.255112,-0.02514 0.382932,-0.03204 l 3.172936,6.346899 h 6.331903 0.244951 6.081792 v -4.631242 h 4.198196 v 4.631242 h 6.326743 V 23.835753 c 0,-1.990473 -0.751999,-3.800377 -2.162651,-5.21105 -1.410679,-1.410669 -3.220588,-2.162141 -5.211048,-2.162141 h -2.104787 c -1.990487,0 -3.800395,0.751467 -5.211048,2.162141 -1.410679,1.410673 -2.162148,3.220577 -2.162148,5.21105 v 15.303461 l -4.221454,-8.442897 -0.455268,0.455269 c 1.410678,-1.410671 2.162148,-3.220054 2.162148,-5.210532 v -2.105301 c 0,-1.990476 -0.75147,-3.800377 -2.162148,-5.21105 -1.410653,-1.410671 -3.220588,-2.162141 -5.211049,-2.162141 h -4.209573 z m 38.310343,0 v 23.166543 h 6.326743 v -6.31486 h 3.151743 c 1.990461,0 3.80037,-0.751991 5.211048,-2.162659 1.410653,-1.410674 2.162149,-3.220059 2.162149,-5.210532 v -2.105301 c 0,-1.990473 -0.751496,-3.800377 -2.162149,-5.21105 -1.410678,-1.410669 -3.220587,-2.162141 -5.211048,-2.162141 h -4.210076 z m 18.945093,0 v 23.166543 h 6.326747 v -6.31486 h 3.15121 c 1.99049,0 3.800404,-0.751986 5.211074,-2.162659 1.41063,-1.410674 2.16266,-3.220059 2.16266,-5.210532 v -2.105301 c 0,-1.990473 -0.75203,-3.800377 -2.16266,-5.21105 -1.4107,-1.410674 -3.220584,-2.162141 -5.211074,-2.162141 h -4.20955 z m 18.944571,0 v 23.166543 h 16.85168 V 33.30236 H 112.0686 v -2.093413 h 6.31486 v -5.484418 h -6.31486 v -2.935221 h 8.42018 v -6.326746 z m 18.94509,0 v 23.166543 h 9.47797 c 1.99049,0 3.80037,-0.75199 5.21105,-2.162659 1.41068,-1.410671 2.16268,-3.220058 2.16268,-5.210534 v -8.420159 c 0,-1.990473 -0.752,-3.800377 -2.16268,-5.21105 -1.41068,-1.410669 -3.22056,-2.162141 -5.21105,-2.162141 z m -88.818354,6.326746 h 3.15124 c 0.337397,0 0.486887,0.06704 0.699691,0.295071 l 0.0254,0.02687 0.02646,0.02479 c 0.228045,0.21283 0.295593,0.362294 0.295593,0.699698 v 2.1053 c 0,0.337405 -0.07554,0.520497 -0.321945,0.766877 -0.205819,0.20584 -0.370814,0.279569 -0.725011,0.279569 h -3.151241 z m 20.412207,0 h 2.104787 c 0.337423,0 0.487389,0.06705 0.700193,0.295071 l 0.02487,0.02687 0.02646,0.02479 c 0.228018,0.212825 0.295593,0.362283 0.295593,0.699698 v 5.677691 h -4.198197 v -5.677691 c 0,-0.3542 0.07321,-0.519176 0.279056,-0.725019 0.246354,-0.246372 0.429975,-0.321426 0.767398,-0.321426 z m 17.898136,0 h 3.151743 c 0.337424,0 0.486887,0.06705 0.699691,0.295071 l 0.02487,0.02687 0.02685,0.02479 c 0.228018,0.212825 0.29509,0.362283 0.29509,0.699698 v 2.1053 c 0,0.337416 -0.07506,0.520499 -0.321442,0.766877 -0.20582,0.205835 -0.370788,0.279569 -0.725012,0.279569 h -3.151743 z m 18.945097,0 h 3.15121 c 0.33742,0 0.48742,0.06705 0.70022,0.295071 l 0.0249,0.02687 0.0265,0.02479 c 0.22804,0.21283 0.29559,0.362294 0.29559,0.699698 v 2.1053 c 0,0.337405 -0.075,0.520497 -0.32144,0.766877 -0.20582,0.205835 -0.37132,0.279569 -0.72554,0.279569 h -3.15122 z m 37.889674,0 h 3.15121 c 0.33743,0 0.48739,0.06705 0.70022,0.295071 l 0.0249,0.02687 0.0265,0.02479 c 0.22802,0.212825 0.29557,0.362283 0.29557,0.699698 v 8.420158 c 0,0.337418 -0.075,0.520502 -0.32142,0.766879 -0.20582,0.205835 -0.37132,0.27957 -0.72554,0.27957 h -3.15121 z" />
    <path
       id="text66"
       style="-inkscape-font-specification:'chol game font';fill:#f99bad;fill-opacity:1;stroke-width:0.264583"
       d="m 10.596761,12.229229 v 6.326746 h 5.262721 v 16.839797 h 6.326769 V 18.555975 h 5.262192 v -6.326746 z m 18.945092,0 v 23.166543 h 6.326743 v -6.31486 h 3.15124 c 0.1279,0 0.255112,-0.02514 0.382932,-0.03204 l 3.172936,6.346899 h 6.331903 0.244951 6.081792 v -4.631243 h 4.198196 v 4.631243 h 6.326743 V 19.60242 c 0,-1.990473 -0.751999,-3.800377 -2.162651,-5.211051 -1.410679,-1.410668 -3.220588,-2.16214 -5.211048,-2.16214 h -2.104787 c -1.990487,0 -3.800395,0.751467 -5.211048,2.16214 -1.410679,1.410674 -2.162148,3.220578 -2.162148,5.211051 v 15.30346 l -4.221454,-8.442896 -0.455268,0.455268 c 1.410678,-1.410671 2.162148,-3.220053 2.162148,-5.210532 v -2.1053 c 0,-1.990476 -0.75147,-3.800377 -2.162148,-5.211051 -1.410653,-1.410671 -3.220588,-2.16214 -5.211049,-2.16214 h -4.209573 z m 38.310343,0 v 23.166543 h 6.326743 v -6.31486 h 3.151743 c 1.990461,0 3.80037,-0.751991 5.211048,-2.16266 1.410653,-1.410673 2.162149,-3.220058 2.162149,-5.210532 v -2.1053 c 0,-1.990473 -0.751496,-3.800377 -2.162149,-5.211051 -1.410678,-1.410668 -3.220587,-2.16214 -5.211048,-2.16214 h -4.210076 z m 18.945093,0 v 23.166543 h 6.326747 v -6.31486 h 3.15121 c 1.99049,0 3.800404,-0.751986 5.211074,-2.16266 1.41063,-1.410673 2.16266,-3.220058 2.16266,-5.210532 v -2.1053 c 0,-1.990473 -0.75203,-3.800377 -2.16266,-5.211051 -1.4107,-1.410673 -3.220584,-2.16214 -5.211074,-2.16214 h -4.20955 z m 18.944571,0 v 23.166543 h 16.85168 V 29.069026 H 112.0686 v -2.093412 h 6.31486 v -5.484418 h -6.31486 v -2.935221 h 8.42018 v -6.326746 z m 18.94509,0 v 23.166543 h 9.47797 c 1.99049,0 3.80037,-0.751991 5.21105,-2.162659 1.41068,-1.410671 2.16268,-3.220058 2.16268,-5.210535 V 19.60242 c 0,-1.990473 -0.752,-3.800377 -2.16268,-5.211051 -1.41068,-1.410668 -3.22056,-2.16214 -5.21105,-2.16214 z m -88.818354,6.326746 h 3.15124 c 0.337397,0 0.486887,0.06704 0.699691,0.295071 l 0.0254,0.02687 0.02646,0.02479 c 0.228045,0.212831 0.295593,0.362294 0.295593,0.699699 v 2.1053 c 0,0.337405 -0.07554,0.520496 -0.321945,0.766876 -0.205819,0.205841 -0.370814,0.27957 -0.725011,0.27957 h -3.151241 z m 20.412207,0 h 2.104787 c 0.337423,0 0.487389,0.06705 0.700193,0.295071 l 0.02487,0.02687 0.02646,0.02479 c 0.228018,0.212826 0.295593,0.362284 0.295593,0.699699 v 5.677691 h -4.198197 v -5.677691 c 0,-0.3542 0.07321,-0.519176 0.279056,-0.725019 0.246354,-0.246372 0.429975,-0.321427 0.767398,-0.321427 z m 17.898136,0 h 3.151743 c 0.337424,0 0.486887,0.06705 0.699691,0.295071 l 0.02487,0.02687 0.02685,0.02479 c 0.228018,0.212826 0.29509,0.362284 0.29509,0.699699 v 2.1053 c 0,0.337415 -0.07506,0.520499 -0.321442,0.766876 -0.20582,0.205836 -0.370788,0.27957 -0.725012,0.27957 h -3.151743 z m 18.945097,0 h 3.15121 c 0.33742,0 0.48742,0.06705 0.70022,0.295071 l 0.0249,0.02687 0.0265,0.02479 c 0.22804,0.212831 0.29559,0.362294 0.29559,0.699699 v 2.1053 c 0,0.337405 -0.075,0.520496 -0.32144,0.766876 -0.20582,0.205836 -0.37132,0.27957 -0.72554,0.27957 h -3.15122 z m 37.889674,0 h 3.15121 c 0.33743,0 0.48739,0.06705 0.70022,0.295071 l 0.0249,0.02687 0.0265,0.02479 c 0.22802,0.212826 0.29557,0.362284 0.29557,0.699699 v 8.420158 c 0,0.337418 -0.075,0.520502 -0.32142,0.766879 -0.20582,0.205835 -0.37132,0.279569 -0.72554,0.279569 h -3.15121 z" />
    <rect
       style="fill:#000000;fill-opacity:1;stroke:none;stroke-width:1.6365;stroke-linecap:round;stroke-linejoin:round;stroke-dasharray:none;stroke-dashoffset:7.8;stroke-opacity:1"
       id="rect1"
       width="152.13542"
       height="3.175"
       x="0"
       y="0"
       ry="0" />
    <rect
       style="fill:#000000;fill-opacity:1;stroke:none;stroke-width:1.6365;stroke-linecap:round;stroke-linejoin:round;stroke-dasharray:none;stroke-dashoffset:7.8;stroke-opacity:1"
       id="rect2"
       width="152.13542"
       height="3.175"
       x="0"
       y="47.625"
       ry="0" />
  </g>
</svg>
