<?xml version="1.0" encoding="UTF-8" standalone="no"?>
<!-- Created with Inkscape (http://www.inkscape.org/) -->

<svg
   width="217"
   height="177"
   viewBox="0 0 57.414582 46.831251"
   version="1.1"
   id="svg1"
   inkscape:version="1.4 (e7c3feb100, 2024-10-09)"
   sodipodi:docname="watch_ad.svg"
   xmlns:inkscape="http://www.inkscape.org/namespaces/inkscape"
   xmlns:sodipodi="http://sodipodi.sourceforge.net/DTD/sodipodi-0.dtd"
   xmlns="http://www.w3.org/2000/svg"
   xmlns:svg="http://www.w3.org/2000/svg">
  <sodipodi:namedview
     id="namedview1"
     pagecolor="#5d7789"
     bordercolor="#666666"
     borderopacity="1.0"
     inkscape:showpageshadow="2"
     inkscape:pageopacity="0.0"
     inkscape:pagecheckerboard="0"
     inkscape:deskcolor="#d1d1d1"
     inkscape:document-units="mm"
     inkscape:zoom="2.3736504"
     inkscape:cx="82.783884"
     inkscape:cy="85.522282"
     inkscape:window-width="1920"
     inkscape:window-height="973"
     inkscape:window-x="0"
     inkscape:window-y="32"
     inkscape:window-maximized="1"
     inkscape:current-layer="layer1" />
  <defs
     id="defs1" />
  <g
     inkscape:label="Layer 1"
     inkscape:groupmode="layer"
     id="layer1">
    <rect
       style="fill:#314655;fill-opacity:1;stroke:none;stroke-width:1.07576;stroke-linecap:butt;stroke-linejoin:round;stroke-dasharray:none;stroke-dashoffset:7.8;stroke-opacity:1"
       id="rect139"
       width="57.414581"
       height="46.831249"
       x="1.0800782e-06"
       y="-4.3505861e-06"
       ry="6.8791666" />
    <path
       d="m 13.712595,38.380797 1.153438,-5.767192 h -1.153438 l -0.876614,4.406134 -0.853544,-3.829415 H 10.828999 L 9.9754544,37.019739 9.0988413,32.613605 H 7.945403 l 1.1534383,5.767192 h 1.7301577 l 0.576719,-2.595237 0.576719,2.595237 z m 4.03703,-5.767192 q -0.715132,0 -1.222645,0.507513 -0.507513,0.507513 -0.507513,1.222644 v 4.037035 h 1.153439 v -1.268783 h 1.730157 v 1.268783 h 1.153438 v -4.037035 q 0,-0.715131 -0.507512,-1.222644 -0.507513,-0.507513 -1.222645,-0.507513 z m 0,1.153438 h 0.576719 q 0.242222,0 0.403703,0.173016 0.173016,0.161481 0.173016,0.403703 v 1.845502 h -1.730157 v -1.845502 q 0,-0.242222 0.161481,-0.403703 0.173016,-0.173016 0.415238,-0.173016 z m 3.460315,-1.153438 v 1.153438 h 1.441798 v 4.613754 h 1.153438 v -4.613754 h 1.441798 v -1.153438 z m 6.343911,1.730157 q 0,-0.242222 0.161481,-0.403703 0.173016,-0.173016 0.415238,-0.173016 h 0.576719 q 0.242222,0 0.403704,0.173016 0.173015,0.161481 0.173015,0.403703 h 1.153439 q 0,-0.715131 -0.507513,-1.222644 -0.507513,-0.507513 -1.222645,-0.507513 H 28.13057 q -0.715132,0 -1.222645,0.507513 -0.507513,0.507513 -0.507513,1.222644 v 2.306877 q 0,0.715132 0.507513,1.222645 0.507513,0.507513 1.222645,0.507513 h 0.576719 q 0.715132,0 1.222645,-0.507513 0.507513,-0.507513 0.507513,-1.222645 h -1.153439 q 0,0.242222 -0.173015,0.415238 -0.161482,0.161481 -0.403704,0.161481 H 28.13057 q -0.242222,0 -0.415238,-0.161481 -0.161481,-0.173016 -0.161481,-0.415238 z m 4.037033,-1.730157 v 5.767192 h 1.153438 v -1.845502 h 1.730158 v 1.845502 h 1.153438 V 32.613605 H 34.47448 v 2.99894 h -1.730158 v -2.99894 z m 10.380945,0 q -0.715132,0 -1.222645,0.507513 -0.507513,0.507513 -0.507513,1.222644 v 4.037035 h 1.153439 v -1.268783 h 1.730157 v 1.268783 h 1.153439 v -4.037035 q 0,-0.715131 -0.507513,-1.222644 -0.507513,-0.507513 -1.222645,-0.507513 z m 0,1.153438 h 0.576719 q 0.242222,0 0.403704,0.173016 0.173015,0.161481 0.173015,0.403703 v 1.845502 H 41.39511 v -1.845502 q 0,-0.242222 0.161481,-0.403703 0.173016,-0.173016 0.415238,-0.173016 z m 3.460318,-1.153438 v 5.767192 h 2.306877 q 0.715131,0 1.222644,-0.507513 0.507513,-0.507513 0.507513,-1.222645 v -2.306877 q 0,-0.715131 -0.507513,-1.222644 -0.507513,-0.507513 -1.222644,-0.507513 z m 1.153438,4.613753 v -3.460315 h 1.153439 q 0.242222,0 0.403703,0.173016 0.173016,0.161481 0.173016,0.403703 v 2.306877 q 0,0.242222 -0.173016,0.415238 -0.161481,0.161481 -0.403703,0.161481 z"
       id="text132"
       style="font-size:6.92063px;line-height:1.25;font-family:'chol game font';-inkscape-font-specification:'chol game font';fill:#ffffff;stroke-width:0.339243"
       aria-label="WATCH AD" />
    <circle
       style="fill:#ffdf7b;fill-opacity:1;stroke-width:1.83939;stroke-linecap:round;stroke-linejoin:round;stroke-dashoffset:7.8"
       id="circle132"
       cx="16.238785"
       cy="15.565646"
       r="7.6919308" />
    <path
       d="m 32.397935,9.0974844 q 0,0.6288485 -0.449177,1.0780256 -0.419232,0.419233 -1.048081,0.419233 h -1.497258 v 2.994516 h 1.497258 q 0.778574,0 1.497258,-0.269506 v 9.732179 h 2.994517 V 9.1274296 q 0,0 0,-0.029945 v 0 -1.0181357 h -2.994517 z m 5.989034,13.9544476 h 10.480808 v -2.994517 h -7.486292 v -1.497258 q 0,-0.628848 0.419233,-1.048081 0.449177,-0.449177 1.078026,-0.449177 h 1.497258 q 1.197807,0 2.245888,-0.598904 1.048081,-0.598903 1.646984,-1.646984 0.598903,-1.048081 0.598903,-2.245887 0,-1.197807 -0.598903,-2.245888 Q 47.669971,9.2771554 46.62189,8.6782521 45.573809,8.0793487 44.376002,8.0793487 h -1.497258 q -1.856601,0 -3.174188,1.3175874 -1.317587,1.3175869 -1.317587,3.1741879 h 2.994516 q 0,-0.628849 0.419233,-1.048081 0.449177,-0.449178 1.078026,-0.449178 h 1.497258 q 0.86841,0 1.287642,0.74863 0.449178,0.748629 0,1.497258 -0.419232,0.748629 -1.287642,0.748629 h -1.497258 q -1.856601,0 -3.174188,1.317587 -1.317587,1.317588 -1.317587,3.174188 z"
       id="text133"
       style="font-size:17.9671px;line-height:1.25;font-family:'chol game font';-inkscape-font-specification:'chol game font';fill:#ffffff;stroke-width:0.306565"
       aria-label="12" />
  </g>
</svg>
